<mxfile host="65bd71144e" scale="1" border="10">
    <diagram id="tlKLa2pwDAwNV2RaWL9W" name="�� 1 ҳ">
        <mxGraphModel dx="1043" dy="577" grid="1" gridSize="10" guides="1" tooltips="1" connect="1" arrows="1" fold="1" page="1" pageScale="1" pageWidth="827" pageHeight="1169" math="0" shadow="0">
            <root>
                <mxCell id="0"/>
                <mxCell id="1" parent="0"/>
                <mxCell id="31" value="" style="shape=table;startSize=0;container=1;collapsible=0;childLayout=tableLayout;" parent="1" vertex="1">
                    <mxGeometry x="354" y="350" width="106" height="400" as="geometry"/>
                </mxCell>
                <mxCell id="32" value="" style="shape=partialRectangle;collapsible=0;dropTarget=0;pointerEvents=0;fillColor=none;top=0;left=0;bottom=0;right=0;points=[[0,0.5],[1,0.5]];portConstraint=eastwest;" parent="31" vertex="1">
                    <mxGeometry width="106" height="40" as="geometry"/>
                </mxCell>
                <mxCell id="33" value="" style="shape=partialRectangle;html=1;whiteSpace=wrap;connectable=0;overflow=hidden;fillColor=none;top=0;left=0;bottom=0;right=0;pointerEvents=1;" parent="32" vertex="1">
                    <mxGeometry width="106" height="40" as="geometry">
                        <mxRectangle width="106" height="40" as="alternateBounds"/>
                    </mxGeometry>
                </mxCell>
                <mxCell id="34" value="" style="shape=partialRectangle;collapsible=0;dropTarget=0;pointerEvents=0;fillColor=none;top=0;left=0;bottom=0;right=0;points=[[0,0.5],[1,0.5]];portConstraint=eastwest;" parent="31" vertex="1">
                    <mxGeometry y="40" width="106" height="40" as="geometry"/>
                </mxCell>
                <mxCell id="35" value="" style="shape=partialRectangle;html=1;whiteSpace=wrap;connectable=0;overflow=hidden;fillColor=none;top=0;left=0;bottom=0;right=0;pointerEvents=1;" parent="34" vertex="1">
                    <mxGeometry width="106" height="40" as="geometry">
                        <mxRectangle width="106" height="40" as="alternateBounds"/>
                    </mxGeometry>
                </mxCell>
                <mxCell id="36" value="" style="shape=partialRectangle;collapsible=0;dropTarget=0;pointerEvents=0;fillColor=none;top=0;left=0;bottom=0;right=0;points=[[0,0.5],[1,0.5]];portConstraint=eastwest;" parent="31" vertex="1">
                    <mxGeometry y="80" width="106" height="40" as="geometry"/>
                </mxCell>
                <mxCell id="37" value="��ʱ����" style="shape=partialRectangle;html=1;whiteSpace=wrap;connectable=0;overflow=hidden;fillColor=none;top=0;left=0;bottom=0;right=0;pointerEvents=1;" parent="36" vertex="1">
                    <mxGeometry width="106" height="40" as="geometry">
                        <mxRectangle width="106" height="40" as="alternateBounds"/>
                    </mxGeometry>
                </mxCell>
                <mxCell id="38" value="" style="shape=partialRectangle;collapsible=0;dropTarget=0;pointerEvents=0;fillColor=none;top=0;left=0;bottom=0;right=0;points=[[0,0.5],[1,0.5]];portConstraint=eastwest;" parent="31" vertex="1">
                    <mxGeometry y="120" width="106" height="40" as="geometry"/>
                </mxCell>
                <mxCell id="39" value="����" style="shape=partialRectangle;html=1;whiteSpace=wrap;connectable=0;overflow=hidden;fillColor=none;top=0;left=0;bottom=0;right=0;pointerEvents=1;" parent="38" vertex="1">
                    <mxGeometry width="106" height="40" as="geometry">
                        <mxRectangle width="106" height="40" as="alternateBounds"/>
                    </mxGeometry>
                </mxCell>
                <mxCell id="40" value="" style="shape=partialRectangle;collapsible=0;dropTarget=0;pointerEvents=0;fillColor=none;top=0;left=0;bottom=0;right=0;points=[[0,0.5],[1,0.5]];portConstraint=eastwest;" parent="31" vertex="1">
                    <mxGeometry y="160" width="106" height="40" as="geometry"/>
                </mxCell>
                <mxCell id="41" value="ebp" style="shape=partialRectangle;html=1;whiteSpace=wrap;connectable=0;overflow=hidden;fillColor=none;top=0;left=0;bottom=0;right=0;pointerEvents=1;" parent="40" vertex="1">
                    <mxGeometry width="106" height="40" as="geometry">
                        <mxRectangle width="106" height="40" as="alternateBounds"/>
                    </mxGeometry>
                </mxCell>
                <mxCell id="42" value="" style="shape=partialRectangle;collapsible=0;dropTarget=0;pointerEvents=0;fillColor=none;top=0;left=0;bottom=0;right=0;points=[[0,0.5],[1,0.5]];portConstraint=eastwest;" parent="31" vertex="1">
                    <mxGeometry y="200" width="106" height="40" as="geometry"/>
                </mxCell>
                <mxCell id="43" value="ret����һ��ָ��ĵ�ַ��" style="shape=partialRectangle;html=1;whiteSpace=wrap;connectable=0;overflow=hidden;fillColor=none;top=0;left=0;bottom=0;right=0;pointerEvents=1;" parent="42" vertex="1">
                    <mxGeometry width="106" height="40" as="geometry">
                        <mxRectangle width="106" height="40" as="alternateBounds"/>
                    </mxGeometry>
                </mxCell>
                <mxCell id="44" value="" style="shape=partialRectangle;collapsible=0;dropTarget=0;pointerEvents=0;fillColor=none;top=0;left=0;bottom=0;right=0;points=[[0,0.5],[1,0.5]];portConstraint=eastwest;" parent="31" vertex="1">
                    <mxGeometry y="240" width="106" height="40" as="geometry"/>
                </mxCell>
                <mxCell id="45" value="c" style="shape=partialRectangle;html=1;whiteSpace=wrap;connectable=0;overflow=hidden;fillColor=none;top=0;left=0;bottom=0;right=0;pointerEvents=1;" parent="44" vertex="1">
                    <mxGeometry width="106" height="40" as="geometry">
                        <mxRectangle width="106" height="40" as="alternateBounds"/>
                    </mxGeometry>
                </mxCell>
                <mxCell id="46" value="" style="shape=partialRectangle;collapsible=0;dropTarget=0;pointerEvents=0;fillColor=none;top=0;left=0;bottom=0;right=0;points=[[0,0.5],[1,0.5]];portConstraint=eastwest;" parent="31" vertex="1">
                    <mxGeometry y="280" width="106" height="40" as="geometry"/>
                </mxCell>
                <mxCell id="47" value="b" style="shape=partialRectangle;html=1;whiteSpace=wrap;connectable=0;overflow=hidden;fillColor=none;top=0;left=0;bottom=0;right=0;pointerEvents=1;" parent="46" vertex="1">
                    <mxGeometry width="106" height="40" as="geometry">
                        <mxRectangle width="106" height="40" as="alternateBounds"/>
                    </mxGeometry>
                </mxCell>
                <mxCell id="48" value="" style="shape=partialRectangle;collapsible=0;dropTarget=0;pointerEvents=0;fillColor=none;top=0;left=0;bottom=0;right=0;points=[[0,0.5],[1,0.5]];portConstraint=eastwest;" parent="31" vertex="1">
                    <mxGeometry y="320" width="106" height="40" as="geometry"/>
                </mxCell>
                <mxCell id="49" value="a" style="shape=partialRectangle;html=1;whiteSpace=wrap;connectable=0;overflow=hidden;fillColor=none;top=0;left=0;bottom=0;right=0;pointerEvents=1;" parent="48" vertex="1">
                    <mxGeometry width="106" height="40" as="geometry">
                        <mxRectangle width="106" height="40" as="alternateBounds"/>
                    </mxGeometry>
                </mxCell>
                <mxCell id="50" value="" style="shape=partialRectangle;collapsible=0;dropTarget=0;pointerEvents=0;fillColor=none;top=0;left=0;bottom=0;right=0;points=[[0,0.5],[1,0.5]];portConstraint=eastwest;" parent="31" vertex="1">
                    <mxGeometry y="360" width="106" height="40" as="geometry"/>
                </mxCell>
                <mxCell id="51" value="ebp" style="shape=partialRectangle;html=1;whiteSpace=wrap;connectable=0;overflow=hidden;fillColor=none;top=0;left=0;bottom=0;right=0;pointerEvents=1;" parent="50" vertex="1">
                    <mxGeometry width="106" height="40" as="geometry">
                        <mxRectangle width="106" height="40" as="alternateBounds"/>
                    </mxGeometry>
                </mxCell>
                <mxCell id="52" style="edgeStyle=none;html=1;exitX=1;exitY=0.5;exitDx=0;exitDy=0;" parent="1" source="32" edge="1">
                    <mxGeometry relative="1" as="geometry">
                        <mxPoint x="460" y="370" as="targetPoint"/>
                    </mxGeometry>
                </mxCell>
                <mxCell id="55" value="�ߵ�ַ" style="text;html=1;align=center;verticalAlign=middle;resizable=0;points=[];autosize=1;strokeColor=none;fillColor=none;" parent="1" vertex="1">
                    <mxGeometry x="590" y="585" width="50" height="20" as="geometry"/>
                </mxCell>
                <mxCell id="56" value="�͵�ַ" style="text;html=1;align=center;verticalAlign=middle;resizable=0;points=[];autosize=1;strokeColor=none;fillColor=none;" parent="1" vertex="1">
                    <mxGeometry x="590" y="390" width="50" height="20" as="geometry"/>
                </mxCell>
                <mxCell id="74" style="edgeStyle=none;html=1;exitX=0.5;exitY=0;exitDx=0;exitDy=0;" parent="1" source="57" target="50" edge="1">
                    <mxGeometry relative="1" as="geometry"/>
                </mxCell>
                <mxCell id="57" value="" style="shape=partialRectangle;whiteSpace=wrap;html=1;top=0;bottom=0;fillColor=none;" parent="1" vertex="1">
                    <mxGeometry x="354" y="750" width="106" height="60" as="geometry"/>
                </mxCell>
                <mxCell id="58" value="" style="shape=partialRectangle;whiteSpace=wrap;html=1;top=0;bottom=0;fillColor=none;" parent="1" vertex="1">
                    <mxGeometry x="354" y="290" width="106" height="60" as="geometry"/>
                </mxCell>
                <mxCell id="59" value="0xFF48" style="text;html=1;align=center;verticalAlign=middle;resizable=0;points=[];autosize=1;strokeColor=none;fillColor=none;" parent="1" vertex="1">
                    <mxGeometry x="470" y="740" width="60" height="20" as="geometry"/>
                </mxCell>
                <mxCell id="60" value="0xFF44" style="text;html=1;align=center;verticalAlign=middle;resizable=0;points=[];autosize=1;strokeColor=none;fillColor=none;" parent="1" vertex="1">
                    <mxGeometry x="470" y="700" width="60" height="20" as="geometry"/>
                </mxCell>
                <mxCell id="61" value="0xFF3F" style="text;html=1;align=center;verticalAlign=middle;resizable=0;points=[];autosize=1;strokeColor=none;fillColor=none;" parent="1" vertex="1">
                    <mxGeometry x="470" y="660" width="60" height="20" as="geometry"/>
                </mxCell>
                <mxCell id="62" value="0xFF2C" style="text;html=1;align=center;verticalAlign=middle;resizable=0;points=[];autosize=1;strokeColor=none;fillColor=none;" parent="1" vertex="1">
                    <mxGeometry x="471" y="620" width="60" height="20" as="geometry"/>
                </mxCell>
                <mxCell id="103" value="" style="edgeStyle=none;html=1;fontFamily=Helvetica;fontSize=12;fontColor=default;" parent="1" source="63" target="61" edge="1">
                    <mxGeometry relative="1" as="geometry"/>
                </mxCell>
                <mxCell id="63" value="0xFF28" style="text;html=1;align=center;verticalAlign=middle;resizable=0;points=[];autosize=1;strokeColor=none;fillColor=none;" parent="1" vertex="1">
                    <mxGeometry x="470" y="580" width="60" height="20" as="geometry"/>
                </mxCell>
                <mxCell id="64" value="0xFF24" style="text;html=1;align=center;verticalAlign=middle;resizable=0;points=[];autosize=1;strokeColor=none;fillColor=none;" parent="1" vertex="1">
                    <mxGeometry x="470" y="540" width="60" height="20" as="geometry"/>
                </mxCell>
                <mxCell id="65" value="0xFF1F" style="text;html=1;align=center;verticalAlign=middle;resizable=0;points=[];autosize=1;strokeColor=none;fillColor=none;" parent="1" vertex="1">
                    <mxGeometry x="470" y="500" width="60" height="20" as="geometry"/>
                </mxCell>
                <mxCell id="66" value="0xFF1C" style="text;html=1;align=center;verticalAlign=middle;resizable=0;points=[];autosize=1;strokeColor=none;fillColor=none;" parent="1" vertex="1">
                    <mxGeometry x="470" y="460" width="60" height="20" as="geometry"/>
                </mxCell>
                <mxCell id="67" value="0xFF18" style="text;html=1;align=center;verticalAlign=middle;resizable=0;points=[];autosize=1;strokeColor=none;fillColor=none;" parent="1" vertex="1">
                    <mxGeometry x="470" y="420" width="60" height="20" as="geometry"/>
                </mxCell>
                <mxCell id="68" value="0xFF14" style="text;html=1;align=center;verticalAlign=middle;resizable=0;points=[];autosize=1;strokeColor=none;fillColor=none;" parent="1" vertex="1">
                    <mxGeometry x="471" y="380" width="60" height="20" as="geometry"/>
                </mxCell>
                <mxCell id="69" value="0xFF10" style="text;html=1;align=center;verticalAlign=middle;resizable=0;points=[];autosize=1;strokeColor=none;fillColor=none;" parent="1" vertex="1">
                    <mxGeometry x="470" y="340" width="60" height="20" as="geometry"/>
                </mxCell>
                <mxCell id="99" value="" style="shape=singleArrow;whiteSpace=wrap;html=1;arrowWidth=0.4;arrowSize=0.4;direction=north;" parent="1" vertex="1">
                    <mxGeometry x="605" y="420" width="20" height="150" as="geometry"/>
                </mxCell>
                <mxCell id="kW2h7m48jdABqlpYeLpx-99" value="" style="endArrow=classic;html=1;" parent="1" edge="1">
                    <mxGeometry relative="1" as="geometry">
                        <mxPoint x="190" y="589.5" as="sourcePoint"/>
                        <mxPoint x="270" y="590" as="targetPoint"/>
                        <Array as="points">
                            <mxPoint x="216" y="589.5"/>
                        </Array>
                    </mxGeometry>
                </mxCell>
                <mxCell id="kW2h7m48jdABqlpYeLpx-100" value="ebp" style="edgeLabel;resizable=0;html=1;align=center;verticalAlign=middle;" parent="kW2h7m48jdABqlpYeLpx-99" connectable="0" vertex="1">
                    <mxGeometry relative="1" as="geometry">
                        <mxPoint y="1" as="offset"/>
                    </mxGeometry>
                </mxCell>
                <mxCell id="kW2h7m48jdABqlpYeLpx-101" value="" style="endArrow=classic;html=1;" parent="1" edge="1">
                    <mxGeometry relative="1" as="geometry">
                        <mxPoint x="274" y="589.5" as="sourcePoint"/>
                        <mxPoint x="354" y="589.5" as="targetPoint"/>
                        <Array as="points">
                            <mxPoint x="300" y="589.5"/>
                        </Array>
                    </mxGeometry>
                </mxCell>
                <mxCell id="kW2h7m48jdABqlpYeLpx-103" value="esp" style="edgeLabel;html=1;align=center;verticalAlign=middle;resizable=0;points=[];" parent="kW2h7m48jdABqlpYeLpx-101" vertex="1" connectable="0">
                    <mxGeometry x="-0.0009" y="-2" relative="1" as="geometry">
                        <mxPoint as="offset"/>
                    </mxGeometry>
                </mxCell>
                <mxCell id="XjYQB4RF3UkaMitIWLfK-99" value="mov rsp rbp" style="text;html=1;align=center;verticalAlign=middle;resizable=0;points=[];autosize=1;strokeColor=none;fillColor=none;" parent="1" vertex="1">
                    <mxGeometry x="120" y="330" width="80" height="20" as="geometry"/>
                </mxCell>
                <mxCell id="ofRm4WVh6WJ8YGIO4tPf-99" value="" style="shape=table;startSize=0;container=1;collapsible=0;childLayout=tableLayout;" parent="1" vertex="1">
                    <mxGeometry x="1040" y="508.2" width="60" height="205" as="geometry"/>
                </mxCell>
                <mxCell id="ofRm4WVh6WJ8YGIO4tPf-100" value="" style="shape=partialRectangle;collapsible=0;dropTarget=0;pointerEvents=0;fillColor=none;top=0;left=0;bottom=0;right=0;points=[[0,0.5],[1,0.5]];portConstraint=eastwest;" parent="ofRm4WVh6WJ8YGIO4tPf-99" vertex="1">
                    <mxGeometry width="60" height="40" as="geometry"/>
                </mxCell>
                <mxCell id="ofRm4WVh6WJ8YGIO4tPf-101" value="" style="shape=partialRectangle;html=1;whiteSpace=wrap;connectable=0;overflow=hidden;fillColor=none;top=0;left=0;bottom=0;right=0;pointerEvents=1;" parent="ofRm4WVh6WJ8YGIO4tPf-100" vertex="1">
                    <mxGeometry width="60" height="40" as="geometry">
                        <mxRectangle width="60" height="40" as="alternateBounds"/>
                    </mxGeometry>
                </mxCell>
                <mxCell id="ofRm4WVh6WJ8YGIO4tPf-102" value="" style="shape=partialRectangle;collapsible=0;dropTarget=0;pointerEvents=0;fillColor=none;top=0;left=0;bottom=0;right=0;points=[[0,0.5],[1,0.5]];portConstraint=eastwest;" parent="ofRm4WVh6WJ8YGIO4tPf-99" vertex="1">
                    <mxGeometry y="40" width="60" height="40" as="geometry"/>
                </mxCell>
                <mxCell id="ofRm4WVh6WJ8YGIO4tPf-103" value="ebp" style="shape=partialRectangle;html=1;whiteSpace=wrap;connectable=0;overflow=hidden;fillColor=none;top=0;left=0;bottom=0;right=0;pointerEvents=1;" parent="ofRm4WVh6WJ8YGIO4tPf-102" vertex="1">
                    <mxGeometry width="60" height="40" as="geometry">
                        <mxRectangle width="60" height="40" as="alternateBounds"/>
                    </mxGeometry>
                </mxCell>
                <mxCell id="ofRm4WVh6WJ8YGIO4tPf-104" value="" style="shape=partialRectangle;collapsible=0;dropTarget=0;pointerEvents=0;fillColor=none;top=0;left=0;bottom=0;right=0;points=[[0,0.5],[1,0.5]];portConstraint=eastwest;" parent="ofRm4WVh6WJ8YGIO4tPf-99" vertex="1">
                    <mxGeometry y="80" width="60" height="40" as="geometry"/>
                </mxCell>
                <mxCell id="ofRm4WVh6WJ8YGIO4tPf-105" value="ret(eip)" style="shape=partialRectangle;html=1;whiteSpace=wrap;connectable=0;overflow=hidden;fillColor=none;top=0;left=0;bottom=0;right=0;pointerEvents=1;" parent="ofRm4WVh6WJ8YGIO4tPf-104" vertex="1">
                    <mxGeometry width="60" height="40" as="geometry">
                        <mxRectangle width="60" height="40" as="alternateBounds"/>
                    </mxGeometry>
                </mxCell>
                <mxCell id="ofRm4WVh6WJ8YGIO4tPf-106" value="" style="shape=partialRectangle;collapsible=0;dropTarget=0;pointerEvents=0;fillColor=none;top=0;left=0;bottom=0;right=0;points=[[0,0.5],[1,0.5]];portConstraint=eastwest;" parent="ofRm4WVh6WJ8YGIO4tPf-99" vertex="1">
                    <mxGeometry y="120" width="60" height="45" as="geometry"/>
                </mxCell>
                <mxCell id="ofRm4WVh6WJ8YGIO4tPf-107" value="����" style="shape=partialRectangle;html=1;whiteSpace=wrap;connectable=0;overflow=hidden;fillColor=none;top=0;left=0;bottom=0;right=0;pointerEvents=1;" parent="ofRm4WVh6WJ8YGIO4tPf-106" vertex="1">
                    <mxGeometry width="60" height="45" as="geometry">
                        <mxRectangle width="60" height="45" as="alternateBounds"/>
                    </mxGeometry>
                </mxCell>
                <mxCell id="ofRm4WVh6WJ8YGIO4tPf-108" value="" style="shape=partialRectangle;collapsible=0;dropTarget=0;pointerEvents=0;fillColor=none;top=0;left=0;bottom=0;right=0;points=[[0,0.5],[1,0.5]];portConstraint=eastwest;" parent="ofRm4WVh6WJ8YGIO4tPf-99" vertex="1">
                    <mxGeometry y="165" width="60" height="40" as="geometry"/>
                </mxCell>
                <mxCell id="ofRm4WVh6WJ8YGIO4tPf-109" value="ebp" style="shape=partialRectangle;html=1;whiteSpace=wrap;connectable=0;overflow=hidden;fillColor=none;top=0;left=0;bottom=0;right=0;pointerEvents=1;" parent="ofRm4WVh6WJ8YGIO4tPf-108" vertex="1">
                    <mxGeometry width="60" height="40" as="geometry">
                        <mxRectangle width="60" height="40" as="alternateBounds"/>
                    </mxGeometry>
                </mxCell>
                <mxCell id="ofRm4WVh6WJ8YGIO4tPf-110" value="" style="shape=stencil(lVZdb9swDPw1fj1IFKmP5677HwWaLsGypEizrf33oxHIK2WHQN8c586SeMejpvTwtn963U0U3q6X88/d38PzdT+lbxPR4bTfXQ5XfZrS45QeXs6X3Y/L+ffp+fb79WlGzk+/zn/mL7zfeAEhzCQKH8OL7zf48XD6BI9I/AU4IdcvwDMijfByH95Q8wCX6Ow9Q8TgI8j5PAmC3T2B6T4+McjiE0q+j+eEVgxeQOk+XlI/Xsdn1OZUk1CsthXZqU8JaBYfA5KzoVIgzRJil2STULWA1j4xgTyCoA2SMbKjWa1o1hOqOjmWaxFsRYgFxalqY8ThDA0sDiEj2zOo77Ljo6Yy2TMQgx0dWlsRirtCDKu2TwHVa7XWy74Q1L3enipqsgR1qydEWREahP262lMzgby6CqIVgtVM3gppVI4ziid1HDuaFy237dpGu0pA8fxdQLblNBW8jKzce34hCNjxd1VzWmtIRXCqVOqYAjn0N9sE6UVcCJoCXjARxJY1i5986hxb1qw6eATV1U6eopPOKWvmcZaU5EafhjHZspbcZ+k2IawItef59nioiFaH6ve05HGYaz4Xp4HUOUNqqLuiU1b15tDTGujij7hxBT81JK5WqO7M0v4aUmPuQecM3Hq7dIJ2eakOQXWwK2iOiHcPWA0ITSryVmA0e9HQLGyOl3iZsguh9k9sE2g15IJ/dePQdbrP0If/19CXw/F4u8V+/n+8tuqr25U3Pf4D);fillColor=none;" parent="1" vertex="1">
                    <mxGeometry x="1070.0036447143555" y="568.2492596435546" width="50.25210189819336" height="131.75421142578125" as="geometry"/>
                </mxCell>
                <mxCell id="ofRm4WVh6WJ8YGIO4tPf-111" value="" style="shape=stencil(fZTdbsIwDIWfprdHsfPra7a9BxJlVGMUFfb39ktXwXCr+i5NvzjHx44bv7kctue2YXe5Dv1b+9XtrofGPzXM3enQDt21rhr/3PjNvh/a16H/OO2m7/N2JMfVe/85RviezhVIGg+x+5k2HJz723iZ8GN3esAFEhVOSHEdX0QndwuwwpNTfJXDZZ3PCDo+e4jBJ2RWvCeQoSdCsuYLEq/zAUXbExKCwXtkr/hY9Rv2MxIpPjE8rfM1O51vEmRZ5+/Fv/E5mfVy8Nqf4hEN/YQgmheQoX/hjwQEI/6iH6QgGPqpGqoFkbMfANUGmF0hcNkoWZx7JBnRypnhtCaJZhFqT7o0d8kbVQ4FpegDDDYkxcU7luqS0dcpgWaNUUUaOdQ+m3VqyWDjhoc63U8EZFW5uvgfe/vueJym5uP/+ZisW9OI9c+/);fillColor=none;" parent="1" vertex="1">
                    <mxGeometry x="1083.8662484741212" y="680.0036370849609" width="22.521011352539062" height="26.97217559814453" as="geometry"/>
                </mxCell>
                <mxCell id="ofRm4WVh6WJ8YGIO4tPf-112" value="" style="shape=stencil(ZY9RDoQgDERP019T6RFcvYeJuDQiGETdvf1CapSsf9NpXzsFalbTLxoUrjH4SR88RAP0AqXYGR04JgXUAjWjD/od/OYGqZc+T2Y1+z1v+AhXI1aIGVP4FesyOgEsuwJ4jBcbTiCJ+9zI1krasv8fL1nyGrU/);fillColor=none;" parent="1" vertex="1">
                    <mxGeometry x="986.1624069213867" y="572.3822784423828" width="1.12744140625" height="1.34454345703125" as="geometry"/>
                </mxCell>
                <mxCell id="ofRm4WVh6WJ8YGIO4tPf-115" value="" style="shape=stencil(jVfZctswDPwavWJIguDxnKb/kZk4tadunHHc6+8LVaFqwNZO32xxV8KxODjxw/v+6W03pfB+OZ++7n4eni/7iT9NKR1e97vz4aK/Jn6c+OHldN59OZ++vz4v/9+eZuT869vpx/yGXwuvFQphZqXwe3kSiOPfB58X/PHweo0XkujwHy+4j2di8XjextdGzeOLAHyhzA7fC8An6tngI+W8jS+NJBl8ogT8LUzV4plC38ZLp2jxGcZHhEJ1+J4APpJYvFAB9uRGyca/UAN6yDLkMvD6AmB/ThStPZ0asJ87dYuPmjBEaN6gyBSBRVyoFEvQGDdAEIrNEioxMkk14UzqMGmsGrMiVdUVoFIOJNYkTXMCBI166pZQqQBd63FzdaA+IIJQtV9QryKo5LlQbCVzJgaJ0yCyjZKmMgOTNK/NESp1UAwx3XyhD/neJWhUbaKzdjvQjcoQ2hUeVYM2L1ucWYsBVGcYMrvCC3A4+GEwvx/4G3wlKB75G6hm7y/q7tEnLK9fvN9dKNj4aL4awGvdVo/voGy09zhRq0EoAbHcKCISgwjN485WgXZMWJjie0XOFEGOVaTFiUhliLpRpmQbpA4JNNPmqrImSaCE0hb8kJU0nmxOESs8yVDYmYeOV4L2CmSS9h6baWlDLFsE53RRaSCTZByvBIajXwnF+lC0x4LqUYLbpXSbQWqdhWB9qNqPkEkqb5u4ymM/2SJk22GqDHVtEcRGqVZMaKMDrYQO545qM9gvtDB2pvuE5PPQIpzOurO5HbUlysCHWWpW3rpGJ6ClksYSuxIyXMOKbnU2SrrYM2gz9aYVN1xAmtfmwlph59M0VavWtu6iW1eL4lbPjgl1uLjungEubnrs2n2PmMB+oPQ0BsB9gviJ3vF9oTeKxRM6yEMMN0O955H8/2bgRjMfO6MKvGUowdVcryTAJo17dyY1qkivzc/RK7c+GPrj37X45XA8Lrfq63N/jdZHyxWcH/8A);fillColor=none;" parent="1" vertex="1">
                    <mxGeometry x="988.3757247924805" y="585.3794911702474" width="45.628936767578125" height="142.2916819254557" as="geometry"/>
                </mxCell>
                <mxCell id="ofRm4WVh6WJ8YGIO4tPf-118" value="caller" style="text;html=1;align=center;verticalAlign=middle;resizable=0;points=[];autosize=1;strokeColor=none;fillColor=none;" parent="1" vertex="1">
                    <mxGeometry x="930" y="620" width="40" height="20" as="geometry"/>
                </mxCell>
                <mxCell id="ofRm4WVh6WJ8YGIO4tPf-119" value="" style="shape=stencil(lVjbchsxCP0avzKSkBB6TtP/yEycxtM0zjjp7e/LjivXsPZJ+rb2ciQBhwPaDd+8Pt69bDclvb4d9l+3P3f3b48b/rQpZff8uD3s3uxpw7cbvnnYH7ZfDvvvz/fH3y93i+Xy9G3/Y1nh1xGng1paUCX9Pv6TKB3/+Hy0f9o9e/vU/8e+kQ5nn4nrdfuuVMXZM/UO7JlUnX2jLNftRUi9v51Yr9s3Ow87+0EDrF8Hleb9LaR8HcC2XvGABj3mRM17nJWkXQeUQuxTtuQAAOwAkj2ASUCQciIOgEYDsKLFJBSlBKJaossWhAzWTzMgJ3uLQUH2yZ+HKzWQNFu/enuhMdD5ky8Cy3rLgEWxKGuhCjLWqXsO1UYVVFnO1H2AqsIAGSWGL4OWqYAM5FOZnAA8D3k5RBx9bg3HVKiFHTopqoNB2WetDaogC0ay4WktiSo4EucoRmJRQrVstJQIGEgtTEy8D1JgLTNPOTwDQHnhyG2xJZDTHIvZAB0DaoiS8R1HSbyAidEbAYze4UgyFeqDmip9luw1LpURAQp2sBIt4UgKE2f1MDQCkCaZKIVG8s4O1jbyygdUcWsRMACSpcwrtgosUeuVYbowQAZOm5DlUKINRmnpxhoBBQH67Ewf3GHdbt/xwXqf5hjWhERgNVNZplE7rByVTwYx6s+JiudST3ACaBLVuxfKQO5NSQM1bJJraHDjWKK9zlReBrTZYk8AoYSOJFNUzgAD7bCeJRU7LbEp9oGd7pHemqfwXAMU74MyFaBLSwX7mtZKA5SoAcLooALVexEVzyVV2FCMzMln2i4dHR1JqXgujTx15DLALjHeh2FsRfNVimI8eC5xGVAp1QjoINPdEuepMepsk5cvVmkObCdAm1V+GcDzonMGUHR1ExJP72EVgu+GMUpGeHAki7p6to4+B6LLgBorzgCCABInbwMoOlKf5XICKFQNe517BKDJ2F7HKCm8go7V3GqAjqb7tLrP2BoJeT3mxHYGQKleoui9Ptv0L8Ie/n11eNg9PR0/Wpy/j18p7K/jFw6+/QM=);fillColor=none;" parent="1" vertex="1">
                    <mxGeometry x="978.2089767456055" y="438.5903015136719" width="52.21113077799487" height="140.17855834960938" as="geometry"/>
                </mxCell>
                <mxCell id="ofRm4WVh6WJ8YGIO4tPf-120" value="callee" style="text;html=1;align=center;verticalAlign=middle;resizable=0;points=[];autosize=1;strokeColor=none;fillColor=none;" parent="1" vertex="1">
                    <mxGeometry x="915" y="500" width="50" height="20" as="geometry"/>
                </mxCell>
                <mxCell id="ofRm4WVh6WJ8YGIO4tPf-121" value="ebp" style="text;html=1;align=center;verticalAlign=middle;resizable=0;points=[];autosize=1;strokeColor=none;fillColor=none;" parent="1" vertex="1">
                    <mxGeometry x="1110" y="680" width="40" height="20" as="geometry"/>
                </mxCell>
                <mxCell id="100" value="" style="shape=image;verticalLabelPosition=bottom;labelBackgroundColor=default;verticalAlign=top;aspect=fixed;imageAspect=0;image=data:image/png,iVBORw0KGgoAAAANSUhEUgAAAq0AAAFbCAYAAAD/f7cyAAAAAXNSR0IArs4c6QAAAARnQU1BAACxjwv8YQUAAAAJcEhZcwAAEk4AABJOAV4u5coAAD9hSURBVHhe7d09ryzZWfbx7SfiJUUiQdhjCWEJx0AGAUJC4hB5pyQIREDK4IScY1IiyCbFEQRIiITvMJYwQgaTACEBEM7ja599je+5Z71WVfdeVf3/SWu6ar1Vda21q+6pU939lc9+5AkAAABY2P97fQUAAACWRdAKAACA5RG0AgAAYHkErQAAAFgeQSsAAACWR9AKAACA5RG0AgAAYHkErQAAAFgeQSsAAACWR9AKAACA5RG0AgAAYHkErQAAAFgeQSsAAACWt1TQ+vWvf/11acxs/VG36ndVj/Z+AQDA+VzmTqsCr14CAADAOX3lsx95XX5zCix/8IMfvK71xfq5bW9dlLfVzH6urHUMrvIeAQDA+b1Z0DoTMNaCpxiI5qC0t14zWu9oH3/88dN3v/vd17UPvvWtbz195zvfeV37INYrlc9ovde3Og4AAAAlp7zTqnolsW3ua6bvtwjW/vIv//LpD/7gD17Xyn7nd37n6bd/+7df6n3/+99/+q3f+q2nv/u7v3v6xV/8xdca4/w+S+/3rY4BAABAzaUeD+jp9d3r45aBXC9o/fu///unf/iHf9h1Z1X8HuN7ycfxlu8TAABgi0t95ZWCLafS+ojYJqa3poD1N37jN17Xtmu9HwJWAACwqrsHrQqMammkvKRVNmpvH3rW9Kg+lLQc/dM//dPLa6yju7NHUKCq/mYDVj2uoAQAAHBrdw9afacvp6hUrlSyJdjKYh8OCHO6tT/7sz97uZPq96ogNQaln3766ed3W11HbfTYwB5+f37/AAAAK1rimVYHTfm1RuXmejGvptRn3FZru719OpqC0b/4i794+pu/+ZuXdW3/29/+9heee1VQ+y//8i+bnnMdOV5yz/cMAABQ8+bPtJaCQa23giqVl4Ip57ssr2f3DkRnfPWrX325uxr92q/92uvSB1/72tc+f2xghN6vU+kY5QQAALCKNw1aW0Gj8lV+S6Vtx8AuplvSXdXSNr75zW++Ln1Y/uEPf/i6to2D0doxBwAAWNWbBa0K0nrBk8pvHTBmMbCL6Zb+7d/+7QsBqvzjP/7j0ze+8Y3XtaeXZT3TGqldrAMAAHBVb/btAaOBoOq5Tc1Mf7ey59sD9M/++VEAfzDLfu/3fu/ll7DiB69UR/lvhW8PAAAA9/Jm3x4wI7eZCQ63BpK2t/0I/aKVftlK23LSh65+8zd/87XGj+v84R/+4ed1tv4aVhS3mRMAAMAqTvuLWK470ma031q9mf06k977uur7BgAA57NU0AoAAACUvPlXXgEAAAA9BK0AAABYHkErAAAAlkfQCgAAgOURtAIAAGB5BK0AAABYHkErAAAAlkfQCgAAgOURtAIAAGB5BK0AAABYHkErAAAAlkfQCgAAgOURtAIAAGB5BK0AAABYHkErAAAAlkfQCgAAgOURtAIAAGB5BK0AAABYHkErAAAAlkfQCgAAgOURtAIAAGB5BK0AAABYHkErAAAAlkfQekF/8id/8vS9733vdQ1X9fWvf/11qa1Vb6RsZDtbt4H7YAywBfMGqyFoXYCCTJ0cSknBZ698BIHs9fzgBz94mQNH8ryKbrEdAABmEbQu4P379y+BgdLz8/PT3/7t336+/ku/9Evd8hYHvL/7u7/7ed0cBBPMnpfmwBE8F+SoPkV9HtkftvMY9xIArIqg9QEoyFXAGu+2OvBVEIzzKAUZOblej+o4oNRrK7icDTzzvsSE+9Ix9/jGJLV8AFgRQesifPfzr//6r5/evXv3shzvgI6W5zpaxnWUAoxS3j14vinFdcv7dc99A7BP/rvOCXgLBK2L8CMA8Z//4z/9j5bnOtxJvS5dODTGNnMhiXV9EXJeaTnmmeeb9yEuYw0aM8YEW/lvOifgrRC0XozuuHJ39fqODEbyxai0HPOyHMxiHR4z/09HTKV8QDQXan/vwFsiaF1A7Z/2lfQIQK+8RHVqZTg3jbtfYxq9yMzUNbXpGamDt6Mxj6mWh8fWOz9sOX8ARyFoXUD8p/2cPvnkk5dP/pfKlOIjAgpuVdePB6gtd12vJ88B543q1Z0JPuMFTK+xrZZzArAu/Y3675m/V6yIoHVRvruqIFTBp5Zn75wqGPYzrTw2cE1HXmTcPge1cRsz1CYnAGvKf+dazueUrecC4CgErYuJwaoDTt+JbQWvvssa77yaHhWI/QmPD5xfvIDsuZio7Zb2pTZb9wHH87gq5fVanhMeT+lvV3meD3rl7xtvjaB1AQ5UlRRc6sSg4FPBqgJVB5c5eFWKZaWAVfSoQC7z4wO1QBdrixeQuLyF2pbaK6/V955t4vY8rrXUqgOY5sPecwxwFILWBTgYVYoBqVLpg1exfi/gdDBbuhPbCnSxJs8DX0C0XOLyI9W2BeC64vkGeGsErYuJAWlM/nAVQeZj83wQX0yUbhFQun+CVeAxEbBiNQStJ9B6XnXE3vZYT76YlILLmWCz1Nb9bw1c1SYnAOvz3ysBK1ZD0Lo4AlZErYtJDi69PnLhiXVLbUb6yNQmJwBr0t+9E3+vWNVXPvuR12UAAABgSdxpBQAAwPIIWgEAALA8glYAAAAsj6D1YvTBK37p6nHoQxNH2tNfq+3R+4l5cQyOGA/GFMC9EbQuRAGnLgQjicAUUWmOOAFH07zi0+XXks8bSrX8mIB7ImhdSO2HBXLSDw1sUQqKCX6vwXMjLnv9HjSXattrleF8GM/r8nkjjm/Mi2VxGbgXgtYLUVCaf/ZVKQam+lUtn2y2Br9Yw57gIc6PmHplOCeN354AI8+DuJ4Tzk/jSECKFRG0LmbkEQEFpjUOSv2zr1rmhwVQormRUyu/RnMy1tG6tcpwfzr+HgMvx7yWOB9qCdczO0+AWyJoXczIIwKlO6QKdvnlq8cRLx75glJbvwX1qzlZ0irD/cSx9zkkLjNGiEp/t8wTrIKg9SIU7BKwPiZfUHxRqa3fii5yMcVttcoArEd/o/pbBVZE0LqQ0W8PaD0egOvTHLhF8Od+9TpK9WOKWmW4j1vNFQB4CwStCyk9GhCfTY0p31XNAW/+QBbfEnANGkuN/y2pf21nVmvf7rHf+KKjj7n66yVcw9ZzAHBrBK2LUfDZCjBr5TngzcEujw5cg8ayJAYNXp656Khu7FvLe9pHrTLcztHHXP31EgDcEkHrBflDWZ988gl3WB9EDBpmg4haUKm8kcCVgBW4Nv0dj5wLgFsjaF2Ig03fFc3BZy4HenoB496g0hcyX9ScnOfXXIa3ozFojTlj9Lg89nmOaHnPeQI4CkHrQuI3AMQAVfkKXEcC1lK7eLc1PufKB7quJV9oRvTqj5SXUq8MwHr091kKWI2/X7w1gtYFle6olgLQLfhFLOBxbfkfGzwW5gdW9pXPfuR1GW9MwarufiqwrN1RbdUpBbulPFxDDEBmg5HR+q5Xqq+8rWb2Fft5rFrHPY7nnrFmbM+p9Deeuc5IXeAWCFoXMBKsZrkNwenj2XMBmWnDBer89o7haHvmynkxxjgDglYAAAAsj2daAQAAsDyCVgAAACyPoHVxelZ1yzcG9NqpXM8m9fou9bN1n3Asjd8RjuonukWf2K42HowTojwfjpgfe/tg7iIiaH0QDlKd9KEtPUzPB7fOL46rUi3vFvJ2nFplSlmpTi3hGDqWox+8qaWSWj6u5VbjHOeXt5Hzavm4Pj6ItQgFlbNf9p+/baDWh+qN/jhBpj5jO69v7Q/H0Am6FHCU8mt1rVfektv21uXoPPT5uOm1Z/SYz+Zjba25UZo7o2Pc67fH8ynPq7yOx0DQurgcNI6qBZsz/ZTaELSuIZ6wS8u18kxlo3IfeRs9eb+iUv5oHtriMcvHr7cuyqsp1c15OI/WfNg6tkfOCeYXeDzgwvyTrX7+NP6Ea0yjz6fGIPaoX+jCPI1ZvpDoNSrl1ahuL5XE/FjPy3ndyzXa35hqebg/j2FMmcanlA9skf/2lVr5eAzcaV2IgsLRRwRqv4gV28c6+a5pXs/cV+/HC3r94Fj5BK0gQXkOFrxcystK+aN5kcpH1fo5al/wRR4bH7ORsSod85rYb2zHOJ1TaaxrYzxq71yotWeOPSaC1sVtDQpzu956pnIHrb1HAWLd2f3Edr2TeeukfqsLQW4/2l+p3mge6nS8xMcsH7/eejZ6/EfrYS2t+aDlkl75iN5cae0XHgtB6+J6wWXm+jHQLPXR6rfUR8yvreN+SidtXzR6J/fWCX/mYuDtbVHb9xGj+/foPJZxTGvLlvO0PiK3yf3iHErj7/Xacs+W+aA2W8xuB+dD0LoABX+jjwVktccEHEzWAsuR/FxnpF/cXr4I+ASf87xeKq/Jfc+otR3pc3S7e/bvUcVjpuWePceX8Tm30vyIc6e03LNlTtTatPrash2cD0HrglYJCGtBK98c8HZ0Ys7iidrloyfvfKLvrdeU9isb3Scb3TbaasfxiLGN7Rmv88tjGNdryz2z7Vp1amUz+4Nz49sDFqPAUHdda5/0V+p9Yl99lNrFtPVT/9ovAta34xOzXp3E45rz9lJfvX68XYnbz8sj+xPrlNqM9IE+j5mPZ++4eixjityfMU4o0RwZmWumujHV8vJ8xHURtC7EdzKfn59f/tlff4gxOX8kYCy1d1I/W/Fhq7enMcw8tuKTeVwviXVaVKfUR95Oj/vJfZX6rqntC7aLY1g7tsrPKRqdA1hTHNM8xn49yuzfsOo7ldbxWAhaFxH/Kb70HaixfDXaN76v9f7yhcUpntC9ntXya1RXbaK4nVGzbWJdb195eV8wrjT2yqsdU4+Z2+T1rNQ/1hbH1CnmH0197vkb3tMW50bQuggFqjEgdeDqiwn/JA/xfFAqXVy8HutktfyjuH+9Yi2lsdd6THncauNYyi/1j/OIYxrnwi3GdU9/3jfm2uMhaF1MfB5Vgar+KJViADtyV7P1TOzWbyrIgfTe/jDPJ+naydpj4nlTUspXm55af6Zyb7u0XpLL3aaUolafKNMxnD1urTYeK9vSP9ZRGr88xvfWmk/MtcfEtwcsQIGqA7+RZ0Z79XuPEvTKbbQe3la8qOw5ke8JOrwPpfZ7+sV+rbGROH+sNo6Sy3r9Y32tv9FSWat+NlO358i+cE4ErQAAAFgejwcAAABgeQStAAAAWB5BKwAAAJZH0Lo4fRhq9jtQW2229If16QMKR9raX2432s/R+4/bYJwex56xZp7gVghaF8an9zFKn6iduVCselHRfpVSqQzj8rErJeBWSvPNCZjBtwcsamvAqnbxe1P1lVj6blX3RSB8DbMn+9LXxKiP2tfHtMpszwUn9523F9e9XMrDmN7xGjmeqtPCeFzLnr+x3LbW155t4DERtC4kB5wtte9zLQWlMY+g9RpmTva9C4ZeR/W2mbc1up+tdl4u5WFM73jduhxr0/htVRp3z4f8mjFvMIugdSGjAWWtXiu/FgyP/JgB1lI60R99UbjXxUTbibzNuH0v51eM6x2zVvmetjinrWPqdnoV9+H1EuYOZvBM60U4YM0/s+oPXSk41cnh+fn582UlAtbzmTnJl+q2LiB7ed6VlPK9f3E/Xa/VF+b5eJZSjco0Nrl+TK4X13EtW8Y1n3u07hTXgRkErRfx/v37lwBUrzEwjc+zAqJ5kS9CMehwWSkvy3WOuBC5fakvbwNzfCxbqSTml+qX8vAY9LcI3BtB68U5mMU1xAAxplaZU4nzc/BRSiW98tp2t9J2ju7zqjzuWxIel8bff88zcyG26+HvGFvxTOtCWs+eZvlZ1Fpb1dPd1la/uS+cS+liMXoBmbnQ9PT2o7Yt59fq9soxZs8xU9tRjMu5lf7O8tzpzaXR+r1+gIygdSG1D1JlvXqt8tFt4Bz2XAxKF5aa2jZa1CZuo7RPubxmpC/U7T1epfajeTiPOH4jyzWtthLbj/QHGI8HPBAHrLrzyq9inZ8vAFnvIqDyWlu1y6mmVqfXLlK9uC+x7Uw/6PO41xJgmg/+2/Oy58jM32TsR7Qc+5KZ/gCCVuCk4gUgXgR63O4o8cLk/ZnhNiP7NNs3PtCxbaUROvYx1fJwTho/z4XROVHifmJ/2Z7+8dgIWi9Md1Z9RzU+FqAPZ3G39Tp0AfBFonWhuIXS9rwvt+C+7/ke8YGOeUy1PJxP7W8q5ut15u8619eyE7AVQetFvXv3jmdXH4guBLpI+EJxjwuDt1ni/Fp55H68z61+ZaRPHKc3Hji/0viWxl3r/jstac0V5TupXqsfoIagdTEKNv0HXUsj3zAQvxGg9OEr7rZeg+dEvFDEC8Ms9xdTTdxmS6uPlq3tMMbHV6+jY1nDWF2HxrI1J2bOLa0+ZvoBjG8PWMjoJ/tH60mv7kxfWEM80dcuCta6+GS1uqN9tOqN9t1ab/WPbXrHdOaYMz7npvGTmfEW12f8cQ8ErQAAAFgejwcAAABgeQStAAAAWB5BKwAAAJZH0LowfUjqyE/3H90f1uIPRsza2i5q9THT/xH7guNpXEYTrumIsT1qfjDfHhcfxFrc6Kf7VS9/FVb82ivj2wKuSyfwLZ/e3douavUx0/8R+4Iv03HtmT3ujNX15DGN67XlbLSPEapfMtMHroWgdRGloHNEKTCVWnBK0HpdsxcE29pO3LbVx0z/e/YFdb3j2hu/LRjHc8pzwesxvzVfpFa3165nb3ucH0HrIrYEk602LtMPCPSC4Vrgi3Xp5D2qd3EZVerHF5F8MWn1W9ufo94TviyPT9Yqr5VtaYP15bHzen5tiXW03NLrKxrZNq6NoHUBOfisBaMxvxWwSqm81wbnUTp5j+ZFoxeBWj3lZ7P7YEfXw4+Vximrja/zYx/Kc1ktH9eydVxju5E+4nyaxby7PoLWxWwJRk1l8a5qvoNK0HodpZP/aJ4d2cfsdrLR7Y70hS/rHbctx5WxuDaNb09v/PMc2Tpn3C6/4vHw7QELGQkq379///JP/rVvAVCgqj9mpVbAqnW+SeBxzZz0a/VqfSg/plqeaX3vvuD2WuNXysd5xDH0OOpvLaZantX62Et95X607m3gsXCn9UJqQW8pfyRAxrpmTtili0vtYtIqaxlpV6pzi33Bl+lY9mw91ozTtdT+Tm1krN3HyLyTUp9uG8vyvpXq4NoIWhejYHLrB6dqwWmpPz58dW755C2jeS2z9c0XD6m1v9e+oG/m2MaxNbdtleGc8tzwen5tqdUZbSveVk+s1+sb50fQuriZO6I5QC0FpjP94VxGLghZbtNbj3yhsNyupdTnnn3BnJljWRuH/BrLcF618ZwZ51K583ptoy3bwbXxTOuF6HlX/QErPT8/v+b+GAHrteiEfWuaS7Xt+GJRumh4HsYU87dQu3u856vQsaqlkfKoVBbH1GVbxxbraY3nnr/FPW0BgtYHkQNWrfNBrHPbe/IfDTJa22m1n9m3I/YFX6RjVUsj5Rbz4rLGwcn5MQ/n5nGu6ZVHniPmuTIizqmc8HgIWh9A6Q5r71sIcA4xUNhzEemZucjYaJt77Au2i8day17XODhZKQ+PbfbvO4tzKic8HoLWi1PAqudc37179/kFx6n3gS+ch07gHtce1bnXCb+3nXvuC/bTWMXx8pyLCeel8dP4lsZx9O8091FrN9ofEPFBrEU4uJxR+/EA3UHNjwKUnmWt5eMcaheFeMHZcqHZcjFptZvte+++oG/m2MbxMLfN/TBm51UayxGt8d/SRzTSnvn2WAhaL4ZA9NriSXzkZD1TP19wZvTazva9Z1/QN3p8Vc9K9WO5MW44Sm+ecp54PAStAAAAWB7PtAIAAGB5BK0AAABYHkErAAAAlkfQuiB9mKr0/am1/GxveyvVn+0Dt1P6EIzU8vHY9syXXGfPHGN+nseWsWJ8cUsErQ+EHxRApIvLTAJGzM6VPM9iykp1Sgm3NXuM8/jEBMwgaMW0/EMFBMHrieOjVKOvixlJOJ/SHMh5tfyoVMfrfo1py3zJ863WR6leTtguj2XO83rtONfaSBwfxgpbEbQuQv/s7j/y+AtWCghdlvO30N3Wrd/hqv3Qd8D6hKP0/Pz8Woq3ovlgWo7jo4THVJoHOa+WH5XqeN1yGc4pjqPHMq77/NIS6wNH43taF+TgcOYXrFSWf1FLv5ilxwF6v7QVf1mr10+uyw8Z3J8vHA5WfXEoXVBaFxm3H8VF6HHleRTXW3PManNN7VrzsNZva5sj+4Mx8Vj2jmsuz21rGCvMIGhd0JagNToqmHQ/8WdhS3m4L18M8kVh9uS/pQ3OqRU0WGsulNpvnXu5fq19q9+tZSjTMdsqj2Wm8jgmtWVgBI8HLECBoP54nfJjAC6P+U6txwTUbmu5ynzHNT5S4A9zEbCuJZ/4NTe2ivNrTz9Yi+ZILY1o1c9zhnlzLnFscxopj5xXKgP2ImhdgAJBnwD0jKj+Cd6vCgxVnvNdvxY4KriNd0e3PgOrfmJb9eU7rVv7xHYKBmoXgxgwuE7Mq4l1lDy3nHANeZxj2ivOldF5E7eb9yeW1ZTaKOUybKfjd9Q5II4HY4OtCFovxndI47OnsxyYOkB2gOp8B9LK14mH4PV+eheQHDDk9RLX6dXDucVxzmmEA40jgg314e3mfYmpplS3lLCNx7l0DHvj7/JYL49JXgdGEbQuonQ31Hc5HYhavvspqqOThIPNyAFmbBMD0J7aIwG+Q0zwei0ay5hwDXlcYxpxRKDhbbmPvB+lhPvyMY/jHMejN/4u3zNPgBqC1oX5LmcOROPdT3MAufXuqpWCWec5OM1JZUdsG/t5TCyvl7iO62ksY8L5lca0lHcrnl95O6V9KOXhPuIYecyct2c8Yl+ldWAUQesCWnc9FYzW8nPgeoTS9mJefJ5WKd/VxX3oZK/jn0/6HhfL6yWu06uH84nBQUy9Mot5uY5fR7Tm12g/cfu9hHk6bnGMPGalcWsdY5fFOrmvvA6MImhdgIPCmX+yl1pA2zO7HaxLJ/2jL9LqLyecUwwOnJzv15yiWnlcPlpt3sV96CXM0bE+4rjlcTiiTyAiaD2BI4LMrQEu1nPEBcZ9ODhwknjBcRKX47w0hh5PvY6OaawX28X+jqL+nHAfRx9rzQsn4EgErYuIz41u/Sd/9ZE/bBVPHk75+15nthfbuS+8rXjBiWMTU00MEI6+cGEdngd5jLXemyOtdjNK9d33bF8t7st9Y16cF6VUEsvV3inmK+W6zgNG8ItYC8h3UuN6Xu59nVXua4/WftmR20OfTvC1C/FoWauetC4irXZYSxzHkXEr1W/NlVJZq77E8lxX6yWt/mp6+4Hb4Ljj1ghaAQAAsDweDwAAAMDyCFoBAACwPIJWAAAALI+g9QT0Yac9PyKwt70d1c8eK+zDKmofXFmN93N0f0v19r7XsxyrW7n1+9/T/9a2ud3e93jrY3RWHBeshKB1IVcJyPQ+dKLbkghI5+VjWMsryfVK6Sj6VPHW/npt4/5u3cYjyccqr1vML5Wf1ej7uMr7Ba6CoHUh+gGA/D2tCgDz96oqrRzc6X0oyIhJP/cafwI2rzuNfHVWPhZnOCa35uNn8Zj2xLo5He0Wfdqt9vms9DdRk49V7dg5v1Qe//ZK6yvTeznDfgL4IoLWhTlgnf29/5E7tq06tTulpeDZ6Z4BYynYVXqk74rVMdd7XkGeCzmV6mwx8n7Vt+qVtpfznH9VPg6R12v5JbUy9e8xia9evoXavsT3VUol2s9amajslu8FwDyC1gXEANI/t6o8fWm/Tprx7qvzbxmg1e6U2tY7pLiuPB9iKpVbDCycavk5teRtxfWYHomOmd+zXuMxzOujWn3eW9yPnGbF9/VIRsfvLccZj42gdQGlxwIcvHpZ5TpRHBGwzga+ru9/0h/9qVm10z4r5bu0ef2ed2rPTscr83E0r5fqriQHFw4USss5ZXqvOT/mrX4sbiEej7icj1Xp2PWU2mj93sc57sfs9mvvuZYP4G0RtC7OgV+866r1WpDXC0i3BqyxfinIrvFd2dYzraXHHWLAG1PrEQWnRwyAfVyV8rrzbqk0Dk5RXp/Vaq/3ubf/K/Hx9zGJy54Ttdee3GdMzo9ynZhGymtUPrrPkvuOaaQcwBvTz7hiHR9//PFnn3766cvrRx999LIc8y2XW64npbwRpW221rNY3mrb6yeaqXtFGvP4KnF5ltr2Uk+u01qf7a/Xt5XajLa9utrxkJhXOz7Kz6mmVVYz0ybW3bKtktzPUf2eUem9j+YB98Cd1kX5udLaHdFSeemuqPNG74zayB3ZmTuuOEbtrlK+IxTXnVejPmtpJXofs/uUj0Fef2T5mORlq80J1y21ube8LzEBuA6C1oXEQDH/83jpn8VzsKggshVkjvB2ewGrOXAt7c+taV8JmD8oBRV5/ZbivIzrkdZ7+1OrM9I28/t3ynmPzGOz99jM1r+luC8r7ReA4xC0LsCBogJT851Up/xMqFIvqIxB8OhdUW93JvjttYn7YTHYje97xuh7wu15TublI4wGrA7EotG8RxKPp5Z9POJySa8cAG6NoHUBDvryB5JqdxLf6g6j9nMmmBXdHa7dta297xkErh84oMhBhdaPDCBbattS3sh+tNpn+X3K6HZc71HF46Nlr8dl03FyapWfld9Xz5nfI3AlBK0nNBKote5ujgR4MTCuLUsvgNbd4dlAdxaB648DDl+A9Tp6QT6KtymtbY8GAFsChbjN1j7EfX008X1r2etx2Xz8WsexVgYARyNoXVQp6BzVarslwIttcvtVAkbtx62D4zNR8HGPwMzbMW8z5o3sS63NVnvbX0XvuGrZ63E5KuVJzK/VOVprO3pvSnm5Jh8LfOBjF49hKQ94CwSti3IQVruTWQvSRoLdXqC5J2DOet+pqrT1mVaU6Zj6YqxXrbfEschpltrEbXpdavsS60ipTU49ub+SWOdR5Pccj6eXS8cr1ikdt1KbEvcfUyt/hvYrpxr1XytX/t59Oat47FoJeDOvX32FhY18N6nq6LvzZr7DtNRmy/eg1tqM9jWzzS37d0XxexJry9FsvrXK83Zz3Vrb3O4IvX6O2s6ZHH1MVjvGW7anNvfeTwDH+Yr+8xq/AgAAAEvi8QAAAAAsj6AVAAAAyyNoXVDtw1e1/FvJ25vdfqn+3j5xrNqHTPZ8+GRPn0fvz573cVWrHZO9Y84YH+sWx5MxwlEIWi9EAaBODjOJgPGcSmNZSveQt6NPF49uO+6r2+S8Wj7uJx7vPA6lNCLWHW1TMjPfMM/jVErAvfFBrAUo2Nz6tU+tL+9Xv/Grq/J6T6l9bT9L+xHbt9raPX6I4Gp04Sh9BU0tP9rTNstteus1R+6TbG13ZTomNa1j5WPZO6a18tJ2j+qnpbUNfFk+7q1xGD22M3WBFoLWBdWCy1p+Ta6/p/1sWym12btP+LLRi0wW6+Xlklafbl9rG8V+RurXtPbH4vvCB1uPSRzjVvvR/kv1Yl6tn9H+ZaYuPsjHbGYclDeL8cEMgtYF1QK52QBvS4CoOqU7oroLqh8kqJWV+mxtb/a9oM0XkNoFJsv1eu1H+81m2pXqbt2u7W1/RUeMSc9I/7W+ndcrt1Ke1PLxZTpWJTp+tTIZPb6MBY7CM60LKv1i1b2CPG1bJxel5+fnl4BUy96u12OdTPuqk5QCXP8iVum9rPDzr1ehsRi9MPgipFenmfa3UNqnrJaP2/G8yJRfS7c00/+t9+VK8vjFZYnluQy4J4LWRTjQcyrd0cw/iZoDPvUxEwS26qvMQefsdhz4loJetXXw3fs5WYzxfNBx9nKLLzpKXo+vo7ytkW22qG3cp7wf7r9U1uI2e/btzHzccmqVOR2tto28DgAtBK2LiHc4lUp3MPNdznzX9RZBoLaZ+9y6nRiwGoHrdr7Yez6Il0cCAbeNem0ibyv24e06lfKcb95f03Lss7QN9Pm45dQqc4q8nseolkpq/ZfyakrbUmqVOWFePG75eMayrFa3lg9M0TOtWE/+jf0tv+Pf6qPVn8viq3+zu5Vyf6XtlfqK+bkPfFE8blktr1S/VNdq/bTUynvtItXN9UvtR/oc6edRbT0WtXaz/bm+XnPbuD7Sb6nOSDvU6fgdfQwZExyFO62L0F3I+H+gWx4PkFvcufRd4PjP/U6lRwBK1IcfCYjt3c75rT4wd2dKSvU1d/wak6luXN9KffT68rZdN+6nuH1MOM7o8VS9PDZH6M2Pllvt0yPzWPi4ar2XgHsiaF1EDua2PB4wqvTP9FYri/la5p/z317p4lHKyzR3/BrTrajv1r7E7ZfquSzXrVEfuY7Wa/vwyHrHRWW53HmxrJRXorIjxqZWv9Q/+nTcamMTUy0PuBeC1gvyXc2aVnmvrajO6N3c+O0B+W5yTATB80oXj1JeSatMeuU9GtPYh5aVh/W0xkZleS44L5aV8mbMtvF2fP7APq1xGz2+HotSGikHRhC0LqAUzI08HqB0z2Avbt/fLFD6hgG/H5XlRwfy3WKl0l1l3IfHU+ko6kvjOiJu3/uQ82r5JcqvbVv5tXaP7h7HpjU2NjpvTPW97yP9Yz8fa6XIY1FKI+XACILWBeRHA5RGHg9Q6t0VPUppH5X8TGvcD9Ut5WMN8aITx3Ir9+OLWK2vUr637VTKq+Vn3o8WlXs/8UW9Y7fHyNhs5b49tozvbflY32o8gRZ+EWtR8RnS0nqm8tLd2RG14LK2TefrEYHWPmWtfSTAHbflopwvMCNBhOu06uay0X0r9TeznaxXns3Wv5It791t9Dqqt43afsRttfrwvrT6wLjScc95W4/r1nZARtC6qBww1gLIW2ptc8v+1Nq8xXvDmHtdbHrbaZVzIZ2zyvveMqbKt957eNTx3SMes3z84rGPRo4xY4GjELQCAABgeTzTCgAAgOURtAIAAGB5BK0AAABYHkHr4vQhpfwdqFu/m3VP22imn6O2WeK+b7kNAGW1D+bgOvaMca0t8wZ7ELQ+kJlfslohENQ+6ASXU96vmfcFPLr891TLi0p5JaP1cA76xD9jipXw7QELUHCWv7/U31uqsvh1UHndSn2I+lFAt+X7UVvbGv2KKtdt7UM0uj8z+wA8olKw4SDEXz8Ul62UJzl/pi3WpnHbyuN9RB9Al4JWrOHjjz/+7NNPP31d+yDnlepko216fcVyLX/00UfVVOuntY3e9iXvw8j+9PoEHon+JqK4nsuklGettq12OJcjxrbWhnmCPXg8YFG6k6j/c9XdSf+2v/K8rrJb/3O4/tnddzLjz7j6J1q9rtS64+n9P4qPg/ch789V775+5zvfeRn33//93//C8ne/+92X5T//8z9/rQncl+af/vbw2DQPnPJ6Kx8YRdC6KAeJ8Tf8lRcDtJngzIFuTCP/XL+VAksHqtrf/Mzp1n/e1/tQOx2HR/NHf/RHT7/6q7/69Fd/9Vcvy9/85jef/vRP//TpW9/61tO3v/3tpz/+4z9+rQm0+Rxg8bzQUgtMCVivQ3OgNJ5xjrTmidrGVMqLCZhB0Pog4p1Ip1Lg5zu8Tr7DG/Pi3d6YWndT413bUaXA1gG8eB/ueff5Lf3UT/3U08/8zM88/fu///vL8s/+7M8+/dd//ddL2de+9rWXV2BEPA/kdedJ/PvOaaQc56exrM2PyPW8HOdBXM/5tf6AEoLWBTgozMGX8uPdUK+rTik4q/UzIz8GkPNiind9lUaD0vi+tNzaR7+P/L607G1vvft8Rj/3cz/3Eqj+7//+79O//uu/Pv3whz98Wf6Jn/iJ1xrAB/67ycuZy2Iy/23HlPPzeszHucSxz1plksc8z4eYLC4DIwhaF5AfBdByDL5qQWrW6icGf04OHI+mQLT2T/8uiwFx7euqSgF0DFQfkcZNger//d//vRwH0bH7yZ/8yZdlwPy3k5clngdqdfBY4lywPD+0PmtLG6CGoHVRMbhToKbALq/P3EWNwZ6XlUbuTGpfdOLJKd75VPL+KNhsBay5rBW4Sg50Ld519fLMMTmjr371qy93WDV2eo5Vy//xH//x8qgAMMp//0qAzp15LjhPr+b1mXkT+4h9AVsQtD44BYS9QC/e8YxpJgCuBazWC1xLSoH4SBB+Zjrp//M///NLoPorv/IrL8v/+Z//+fTzP//zrzWA7WYDElxDacyPnAfuS6/MMexB0LoY3zGMAZ7ycsC3JciT2K4XSEYjwW2LttvbTqnOzD4+Aj0G8D//8z8vgeov/MIvvCwDPTqnKJnXY94I1R8JOGb7xbocaMro+IvqllIuA2YQtC5AgZn+eOOHi2KQprxS0NYKBFv/XO7AdSZgVd0tQfIeBKxfpm8N+Omf/umn//7v//7CMpDFoEDnlBhseN15elXdWAew2fmheiMJmEXQugAFkf4n7q0BmgNfJQV6PinE/lTHQacD114QWrrLew8jAasD89qztVelO6wfffTR58u//uu//rIMRA4KRoID/d2onl5rXAePZ2R+APdA0LqI1l3TEb3Ad+sjBrE/72MMfm8lHo/a9nxXOqfS+7+Sb3zjG0+//Mu//PkyH8JCjf4eekaC0VYd5as8JlxHHPs41iUuayXXAzZ5/TlXLCr/Pv/I7/VnW9r0jPZZqze7T7n+Ld4T8Ajib7+Xfgc+l5fq4Lo83r2x3zs39rTF4/qK/vMavwIAAABL4vEAAAAALI+gFQAAAMsjaAUAAMDyCFoXdI9P52/xFvvV2uaqx2kFI5/O5RO8j+FW48z8uR6N6WjqyXVG2gA9BK0XEwM5LceTTCndMugb2b5TbT/y13LVAtVHC2B1zCwfy6yUJ/76GontawnnxDhjlOZKTq38PZhr2OTlOwTw5uJXOHlZr/5akVKqfeVTbN/6WqheucQ6teW9an3l/Nn1q9McyJyXX/c6qh+sbWacmRPXovHckkpK+TGv1g7o4U7rwnSXsfR/uEr6IYGe+AX9Jb3yt5bvsub99fqj3WUtyXctNEeUp1fJ5dzleAxHjbP6yamVj3OK1xinWr5SSWsOeI7U2gI9BK0XEQO3GNy1/om+Fui5L72Wfko158dtZ63tO+lnWGtagan79r7koPaK9H4tnvi1rLLSxaCWXxL7x3XNjrPmT06tfJxLPEdo2SnK+XrN413KE7dhjmAvgtaLUMBW+0nW0s+djtyptVpQ2gpWTfuVt51TbV9iwOvANOep/dUD1Ujv1xeASHkqi1w35wNAFM8RWnaKcn4uL51rlNc6B6kMmEHQelExoHz37t3nJw+n1t1NURvV8avV8m9BAa8CWgXdDshjEPxIwWqJT/h61fGI4+vkfAAYEc8fUS3fSoGpz9XAUQhaFxfvLMZUChhr/zy+5U6r2zhodL+1/JLavufUCn7jeyoF3707vVek4286Bl7Xa07OVz1gVvxby2mkHOdTOn/4NebPUjvmCPYiaF1c7Z/XW0GngsX4zGkp2Lv1XVIp7buD3ZzfC379KEBMvcD7Eeg4SB7fmMT1WlRX9dwG1zQzzqpXSyPlOKc8N7ReSqNcl3mCvQhaL86BYylYbAWK4mAxPytbyy9R3VadkXI/jpBPmDH/0e646j3nE34cW6ct1E7949oYZ0SaC05x3eJ5RamlVw5sRdB6EQrufJKJd1lNwetIkGl+ZtWvVsu/BQfHOeAurT+KfCE5ivqMFxot32I7eFtbx3l0LjBnzktzIc+NuK6xjSnL5TGNlAMjCFoXEZ/d3CLeUbUYyCrFO5NOtSC2FhTOBIsOOv2+vO7gOZdn8ZjE/c7v49bB80p87Et8PGIaoXq1PnEdjDN64hzJ5w+fe5yyXB7TSDkwgqB1Mb1AboYD2VYa2U4toO4F2rE8vi/lK3CdeZ/cae3z8YhpRK3eaHucA+OMlvw/NVqOgauWYwLeAkHrwhTo5ROF08zdRfUT76jm9VsrBeIOXGceV4jv/VHvtNbkC4xonYAEQE/tXJGD2JiAt/AV/Zbr6zLeWCm4q6nVzfmj9SKVzQaCuvNZ2ob6KZXZSB18mS8yOVBtiRea0YA2bocL1fkcNc7KH8U8Ob88D2rjPzrWtXkFzCJoXUQriNyq1+dR28z9bAlEcxuvb0EA3DdzEeGCc173HmfmyjXkcSyN673nFiAErQAAAFgez7QCAABgeQStAAAAWB5BKwAAAJZH0LoYfQCp9jVQrbKaLW1wPvqgwxaldlv7wjkcNb5H9MNcW9uW8Wm1YbyxF0HrCRGIItMnc7kgADjSnvOK2uXUygdG8O0Bi1FA2vr+VJe16kWj9XAeW0/ypa+cUV85v5SH62jNn5lxP2KeHLUv2K81Fi2cP3BPBK2LUZAZv580fudoL2jNbUfwnabns+WiUGtTyq9dvLgQXcNRQcUR/Ry1L9gvj0VvXXp5Wu7J7YEWgtbFtO6MtspKZutjfSMXEskXjtymRHVG+sO5bRnL2pwpmembebWGOA4jY626eexq7Vrjy/hjFs+0nkz8zX2l1oe24l1ZnoG9hnyRqJ3wla9yL0dad4rrQE2cM3G+1PJxLnHc4jh6Oa97OarVk3jNcgK24E7rYvLdUa3XHheoKfXBHddr0Uk/XzRKWvV84XB5rJvbjW4P6/D4bjEy1jNz4tb7gmPMjFNtXOK88HKeK7V8oIegdTGtADOW1eqV8glaUaILhuULR+0ig/M7aiyP6Id5ta4t5wDVMdWN6zWMP2YQtC5CgWXpQ1QzH8SSWj8lfAjr3PZcEHwByq+xLCrl4ZxmxlJ1txrZBvNqDUeNs/tRHmOLWyBoXUQpCM15Xv/kk0+KAWtNLcDFtcxcJFw3v5bKYh7O74hxLc2RLY7YFxyvNhatMXJZrqP1GsYbs/ggFvBgShcer8cyvbYuODi/LWN8qznCfFtDHF8txzHZOkZqlxOwBUHribx//756l1V3U32CyUmPC+RvHYiJbxZ4LL0LRpwbuD7Nh1XGeqV9eUQ69vH8oOU8JrUxiu0y1c8J2IKg9UQUmMbnVbXugFMBrU8wOT0/P788v1oqU+KxAVieG3gMGuuRQEJ18rwYbTvq6P7Qp+NdGlvLY+L10XFS/ZyALQhaF5LvhuYAVXdY9ceuu63cHcU9cHF5HL2x1jmpVkf5owHMCObdfel452Pu65Dl8lKbGvcVE7AFQetC8t1Q3SGV/EEqPyYw+i0BuJbSBUCpVzbL7fQ6enHCNY3MAZVvnWtYj69DGtM94+p+SgmYxbcHLC4HrFGrLBqth8fTC0ZGghWcy8yYOliZmQMzbZhf5zE6Vq7neTCCOYBRBK0AAABYHo8HAAAAYHkErQAAAFgeQeti9Pxp/maAUl5Prc2Wvmy2ba6/Z9uom3l2rOfIvrCurePM/HgsR4038wZHIWjFEghob6d2wRi9kHDBAR7T7AeqhPMKbokPYi1GwVv+pL/y8tdb6euxenVGxb7u0Y/q5a/syu8HdTrZ+2JSe42UV+L60WgeziHPhRGtsWYuXNOWeWKl+ZDnSWneMJewBUHrYnLQmtellJfV6oy0rZltm+vH9T378ejiyT5ebGLeyMUgtu3h4nIdpTkzojbvSpgv55bPIXl9RJ4ve/sDhMcDFqAATn/ESrr7qF/G0j+VKz/frRwN9vQDBKU6tXyck0/8Wy4AajOacA0xWNCr1reIc6OUgBoCVuzBndbFOCjVP5/nu5Ixr6QU5I4o/dP8TF+1f9ov9eG6fk+194K6VqChi8HoRWE2YOFCc25xXtSWazxXmAPXV5oPHv9oZi6MzDFgBEHrQhzk1YLIXpBXqtNrVysf2Z606uWyuK7lUlDMs619+QJQWi8pXYhKFxIuMNfi+TAyZ2rj3ivHdZTmRh73Up55roxgPmEWjwcsyI8HmIM93WmtfcK+FTzWbGlzJAWoOmk9Pz9/vkzAOscXiHyh0LH0BSEul6htTLU8nIvHrjf+4jql8XYfuL489lGrLPJciqmVD8wgaF2EA0gHcA5QY2Cp51GVr5NHDl79rKrqq9xJdzMVBMc8JbW/x/OtcdujjxtgjI6pT/x61foW8SIS+8t5OJfW2LXyY1mcY7i20lgfdY4BjkLQuigHqPlOqPJ18mgFryp3incxY96IUrCbUy8Qjdse3S76dOx1TPfK46nUysc5lcYzp5Ij5hjWp/HPY+28ODe8zrzAWyFoXUDpn+md5+A0J5XpxHGrO6Ux+M2Bb16/9d1afJmOe1bK6/EYjiScW2lMnfDYSnNgdl6UrlNOI+XACILWBZT+mT7mbb1TWgqG78GPKORHE7xeey4Xa+AiAsB0zfE5Qa+1YDZeo3IaKQdGELSiaUvgmx9RUIp3Z7kzeywd01nx4qPlmGp5gOS5UUu4Dp0rNKZbzjXAkQhaL+qIu6wzfahuvoMa8xTIlj5chm1ygBDT7IVF9WOq5QGS50Yt4Tp8XtEr8JYIWk8gfyCq9+GnUlDoAHI0YNwbWJbaO3DlWwT2ycFBTCN8AfJyTrV8JZxXaTydgBrND58v9MqcwVsiaD2BmWdaa8GmA8ZeIKr2OiG16rkvn7yUYiDaC3j1flr7gG00Dr64tMQ6cV6NJJxXaTydgMzn9jw/PGdcDtwTv4gFAACA5XGnFQAAAMsjaAUAAMDyCFoBAACwPILWE9AHm/Z+If8RfWAtfAgCo/yhmVraIrcb7adUb+s+7PVW2300e45zre1Mn0f0gTUQtC6E4BTALfgT3zm5bIYu9L7Yezmv31LcZi+NKrV1eiTx/ZaOQykPuCe+PWAx+euitF76XtPW10Yd0QfWpgtGDjZaF5HZwATXV5pDWZ5Tpfoj/USjc3dvnyNyu976Iyi959G8KJbXlktUvlXcxlatfcPb407rwhx86o8optb3tGZH9IG1+QQdx7e0DlgtcChd7EtzSPWcSusz1MbbKG0rituJqVWmVKL81rYeXem41Y7lDB3zVj9xHnh8cl4t30r58TXn5zwsTHda8bY+/vjjzz799NPXtQ+cl8tKdeWIPnAOH3300evSB3ldSnl4PJoHMVlpOeZZrU1Uy49UJ6eYH+X1qFZ2VJuc1+r3SnrHKJaX8rJcVqrbah/FerXlGVvbYQ08HrCI/E/6kct6v2h1RB9YW+kORenuAHeRkPXukvXmkZd7/Uhr7sV+Sn3X2ub6FtvV8jPXy21aSv1cST5Wcd3LpbyslD9Tt2WmvupuMbM/uD+C1kW0Ak7plcsRfeA8Wifw2YsBri/OidpyNlpvlPqQUj97+p9tW9uP3M+efTqb2nuN+b3jMdJH1OpPZaNm+67Z0gb3xTOti9Dv+SuYVGCZP/3vYFN3SVvfDHBEHzgHTq6Y0Zovym8FCCrL5c6LZfm1JdfRem8/ItVzimr5kcr42/kyH5N47PKx6o1R7bjO5ovKcmrlR3m/83uyvFzqC2shaF2YAk39IfnuqIJSBZ3KGw08j+gDa+Hkiq00d5TyckspMPB6razUr/Jiu7gfOb/UPlI9J6/7NeZncVtoi+MTU8wbNVP3CHGMtW2ve9n7k5exPh4PWEi8G6qvqOp9rVWpzhF9YF21k38+4cYTNR5baS5syfOyXkfU+ir1WeLtlPoZVetb8n7UtPq4Gh+T/Gp5fdRMO9XdKm8jbrf1Xmb2D2+LoHUBDh4lBpAxPysFq3v7wDmMnGA5CcNKc2FLXl4WrTu/1N5K/cTXkpG+bDQvGmnT6+Mq9D4tv/+W0rHptYlmj+3W8ai129of3g6PByxA/2SvP5zSd6cqsFRZTKV6R/SBc9D4ASPiRVnLTqV11fNyi+rEOZjblfoozdncR0yrWGlfbql13F3m8ryexfJYr5Y/yvNuZI6a6rq+l2OK+TgHglbgpPLJF4g0L2JgkIOFvC5azvMpz7FYx6/uJ7e9Fe+TUy1vhtrEY4EP8jHN6/egbXlsRuaZ98/zUrwcU8x3G6yNoBU4EZ9Y4wnZJ18g2jovcrvSHCvlmfJvffH39uN+lPKwXz6mef3WfK6LtN6aY1v2b0sb3B9B6+LevXv3eZDiVHtGteaIPrAGn1TzyTWPby0Pj212HsR5FpdL/ShPdbbMNbWJ6d60zfw3hQ/yuMR150nOj2mkPHNZbVw812rtM9eNCefDB7EWpg9R+auqolp+yRF9ALgOXayPCNBa/cyUler22o+q9SHeRmtbj+4tjo3Hd2a7vTa198HYnw9BKwAAAJbH4wEAAABYHkErAAAAlkfQCgAAgOURtF6MPmD1ve9973Xtg1IersEfQMhq+avK+3u2/V/dLeYJY4Sa1txg3mAPPoh1Ago6S19RVfoZ1tK3AvBNAdemi0D8BGxer5m5eIx+wnakz5FP8bbew+j7w48dfTwZg2vSuI5qjX9vfjB/sBVB6yJKgamD0plAtFbXfavPTz755AvrBLPnMnNhsdIFIl448kWkVRblfcn1Wm0t9xGpbW8b6Ivj0DreVjrGW9vh3OLcGdVrs6VPQHg8YCEKIPWHrPT8/Pyaewz37QBV60dvA/fhOeKU8/K6825l7zbc1v3Edctl2MaBZzyeObWU6jvh3DQ3SqlVphTFvNJyLQ8YRdB6Ebqbqj9+3UH1L2DxHOt1jZ7ouSA8tjj+Ws4BpstjPQLQx+X5EVMtX6nE+bk8tosJmEHQehL5p1jzowTv379/OQHo7mm+q4rr0fjGQKNE5b2LgudTXM7r95K3j2PluaDj7LyR+SRxjHLCeWn8PBdqY5rz9do7v0ir3mgfgBG0LiQGpqXnW/XH7TTyT/vcfb0ezw8lr/t1JD+K80mplOfUUut/Vmt78X0ctb1HpuPn4+xjqfXecY1jlBPOK45fbUxzfi6vcb3S3BrtAzCC1oXsfabVH7hSgKrg1HdfY+Lu67nl8ZxJLTGImZX7V19Oed15s+I28vZQpmNdO07Odx2PC8cV/jv1nLBa/lZH9YPHQtB6QQp+9Q0BvquqYJY7rNcTLyK1NML1clunWQp8nPK680r2bBNf1jrWouPsOnodOe5xjHLCNfjvNM4Nv8b8Gs+F1pxQWa8foISg9SR6z7QqMNVXXfkOre6yclf1+uKFJKcRvnjU0j291XYfUSlo0Lrya+L4uG0pr9UH1qaxG001eW5kalvKB0YQtC7kFs+0+g6rHxkQBbS6E8sPDjwuzzPNJb2WuBzXEsc9p9J8yHVieVwWrTNnzk3jF1Mtr6RVJswP7EXQupA9z7T27qzmRwZwDQ4iSqnF88zLub7WXd4zsr2a2NbLcR376TjGMY7jqmUni8uS6+S6cbxiGZD/hkvzI9cBWghaF5GDTq/7n/1n74hubYdz0UWglmao/tbgY8v2zG1jivk4jo7nngChNi/cL+N1DRrLmGp5PbEtcBSC1osq3XnNgTB3XpHpAjMTfMS6e4KWeGFzECSz+4MvOur49frxmHnccF4ay5hqeZnH33OlVRfYiqB1YaW7pfE51Z6ZujineKHIaUSsv/ciE/tyauWb1vN2tZ7rYb98nGtjYi6L7Wp1VcfjVquD6/IcyXMs5ntuxATM+MpnP/K6jIW0/nl/pmx2HeehE36+QES18nihaLW/h9Z7KJX13jN+rHescvnMsWUcrknjOorxx1sgaAUAAMDyeDwAAAAAyyNoBQAAwPIIWgEAALA8glYAAAAsj6AVAAAAyyNoBQAAwPIIWgEAALA8glYAAAAsj6AVAAAAyyNoBQAAwPIIWgEAALA8glYAAAAsj6AVAAAAyyNoBQAAwPIIWgEAALA8glYAAAAsj6AVAAAAyyNoBQAAwPIIWgEAALC4p6f/D50h7W5IQ99nAAAAAElFTkSuQmCC;" parent="1" vertex="1">
                    <mxGeometry x="200" y="43" width="685" height="347" as="geometry"/>
                </mxCell>
                <mxCell id="101" value="" style="endArrow=classic;html=1;" parent="1" edge="1">
                    <mxGeometry width="50" height="50" relative="1" as="geometry">
                        <mxPoint x="550" y="640" as="sourcePoint"/>
                        <mxPoint x="600" y="590" as="targetPoint"/>
                    </mxGeometry>
                </mxCell>
                <mxCell id="102" style="edgeStyle=none;html=1;exitX=1;exitY=0.5;exitDx=0;exitDy=0;" parent="1" source="42" edge="1">
                    <mxGeometry relative="1" as="geometry">
                        <mxPoint x="550" y="640" as="targetPoint"/>
                    </mxGeometry>
                </mxCell>
                <mxCell id="104" value="" style="rounded=0;whiteSpace=wrap;html=1;fontFamily=Helvetica;fontSize=12;fontColor=default;fillColor=none;gradientColor=none;" parent="1" vertex="1">
                    <mxGeometry x="520" y="590" width="120" height="60" as="geometry"/>
                </mxCell>
                <mxCell id="105" value="Text" style="text;html=1;align=center;verticalAlign=middle;resizable=0;points=[];autosize=1;strokeColor=#000000;fillColor=#FFFFFF;fontSize=12;fontFamily=Helvetica;fontColor=default;" parent="1" vertex="1">
                    <mxGeometry x="115" y="455" width="50" height="30" as="geometry"/>
                </mxCell>
            </root>
        </mxGraphModel>
    </diagram>
    <diagram id="NClV2M6G_Yg3PkqzjKGT" name="�� 2 ҳ">
        <mxGraphModel dx="519" dy="428" grid="1" gridSize="10" guides="1" tooltips="1" connect="1" arrows="1" fold="1" page="1" pageScale="1" pageWidth="827" pageHeight="1169" math="0" shadow="0">
            <root>
                <mxCell id="V2dBWIcwim8vggEBg8Gz-0"/>
                <mxCell id="V2dBWIcwim8vggEBg8Gz-1" parent="V2dBWIcwim8vggEBg8Gz-0"/>
                <mxCell id="7zAaJVbeZUzI89OwNNJT-21" value="" style="shape=table;startSize=0;container=1;collapsible=0;childLayout=tableLayout;" parent="V2dBWIcwim8vggEBg8Gz-1" vertex="1">
                    <mxGeometry x="80" y="120" width="60" height="160" as="geometry"/>
                </mxCell>
                <mxCell id="7zAaJVbeZUzI89OwNNJT-22" value="" style="shape=partialRectangle;collapsible=0;dropTarget=0;pointerEvents=0;fillColor=none;top=0;left=0;bottom=0;right=0;points=[[0,0.5],[1,0.5]];portConstraint=eastwest;" parent="7zAaJVbeZUzI89OwNNJT-21" vertex="1">
                    <mxGeometry width="60" height="40" as="geometry"/>
                </mxCell>
                <mxCell id="7zAaJVbeZUzI89OwNNJT-23" value="" style="shape=partialRectangle;html=1;whiteSpace=wrap;connectable=0;overflow=hidden;fillColor=none;top=0;left=0;bottom=0;right=0;pointerEvents=1;" parent="7zAaJVbeZUzI89OwNNJT-22" vertex="1">
                    <mxGeometry width="60" height="40" as="geometry">
                        <mxRectangle width="60" height="40" as="alternateBounds"/>
                    </mxGeometry>
                </mxCell>
                <mxCell id="7zAaJVbeZUzI89OwNNJT-24" value="" style="shape=partialRectangle;collapsible=0;dropTarget=0;pointerEvents=0;fillColor=none;top=0;left=0;bottom=0;right=0;points=[[0,0.5],[1,0.5]];portConstraint=eastwest;" parent="7zAaJVbeZUzI89OwNNJT-21" vertex="1">
                    <mxGeometry y="40" width="60" height="40" as="geometry"/>
                </mxCell>
                <mxCell id="7zAaJVbeZUzI89OwNNJT-25" value="" style="shape=partialRectangle;html=1;whiteSpace=wrap;connectable=0;overflow=hidden;fillColor=none;top=0;left=0;bottom=0;right=0;pointerEvents=1;" parent="7zAaJVbeZUzI89OwNNJT-24" vertex="1">
                    <mxGeometry width="60" height="40" as="geometry">
                        <mxRectangle width="60" height="40" as="alternateBounds"/>
                    </mxGeometry>
                </mxCell>
                <mxCell id="7zAaJVbeZUzI89OwNNJT-26" value="" style="shape=partialRectangle;collapsible=0;dropTarget=0;pointerEvents=0;fillColor=none;top=0;left=0;bottom=0;right=0;points=[[0,0.5],[1,0.5]];portConstraint=eastwest;" parent="7zAaJVbeZUzI89OwNNJT-21" vertex="1">
                    <mxGeometry y="80" width="60" height="40" as="geometry"/>
                </mxCell>
                <mxCell id="7zAaJVbeZUzI89OwNNJT-27" value="" style="shape=partialRectangle;html=1;whiteSpace=wrap;connectable=0;overflow=hidden;fillColor=none;top=0;left=0;bottom=0;right=0;pointerEvents=1;" parent="7zAaJVbeZUzI89OwNNJT-26" vertex="1">
                    <mxGeometry width="60" height="40" as="geometry">
                        <mxRectangle width="60" height="40" as="alternateBounds"/>
                    </mxGeometry>
                </mxCell>
                <mxCell id="7zAaJVbeZUzI89OwNNJT-28" value="" style="shape=partialRectangle;collapsible=0;dropTarget=0;pointerEvents=0;fillColor=none;top=0;left=0;bottom=0;right=0;points=[[0,0.5],[1,0.5]];portConstraint=eastwest;" parent="7zAaJVbeZUzI89OwNNJT-21" vertex="1">
                    <mxGeometry y="120" width="60" height="40" as="geometry"/>
                </mxCell>
                <mxCell id="7zAaJVbeZUzI89OwNNJT-29" value="" style="shape=partialRectangle;html=1;whiteSpace=wrap;connectable=0;overflow=hidden;fillColor=none;top=0;left=0;bottom=0;right=0;pointerEvents=1;" parent="7zAaJVbeZUzI89OwNNJT-28" vertex="1">
                    <mxGeometry width="60" height="40" as="geometry">
                        <mxRectangle width="60" height="40" as="alternateBounds"/>
                    </mxGeometry>
                </mxCell>
                <mxCell id="7zAaJVbeZUzI89OwNNJT-30" value="" style="shape=table;startSize=0;container=1;collapsible=0;childLayout=tableLayout;" parent="V2dBWIcwim8vggEBg8Gz-1" vertex="1">
                    <mxGeometry x="240" y="120" width="60" height="160" as="geometry"/>
                </mxCell>
                <mxCell id="7zAaJVbeZUzI89OwNNJT-31" value="" style="shape=partialRectangle;collapsible=0;dropTarget=0;pointerEvents=0;fillColor=none;top=0;left=0;bottom=0;right=0;points=[[0,0.5],[1,0.5]];portConstraint=eastwest;" parent="7zAaJVbeZUzI89OwNNJT-30" vertex="1">
                    <mxGeometry width="60" height="40" as="geometry"/>
                </mxCell>
                <mxCell id="7zAaJVbeZUzI89OwNNJT-32" value="" style="shape=partialRectangle;html=1;whiteSpace=wrap;connectable=0;overflow=hidden;fillColor=none;top=0;left=0;bottom=0;right=0;pointerEvents=1;" parent="7zAaJVbeZUzI89OwNNJT-31" vertex="1">
                    <mxGeometry width="60" height="40" as="geometry">
                        <mxRectangle width="60" height="40" as="alternateBounds"/>
                    </mxGeometry>
                </mxCell>
                <mxCell id="7zAaJVbeZUzI89OwNNJT-33" value="" style="shape=partialRectangle;collapsible=0;dropTarget=0;pointerEvents=0;fillColor=none;top=0;left=0;bottom=0;right=0;points=[[0,0.5],[1,0.5]];portConstraint=eastwest;" parent="7zAaJVbeZUzI89OwNNJT-30" vertex="1">
                    <mxGeometry y="40" width="60" height="40" as="geometry"/>
                </mxCell>
                <mxCell id="7zAaJVbeZUzI89OwNNJT-34" value="" style="shape=partialRectangle;html=1;whiteSpace=wrap;connectable=0;overflow=hidden;fillColor=none;top=0;left=0;bottom=0;right=0;pointerEvents=1;" parent="7zAaJVbeZUzI89OwNNJT-33" vertex="1">
                    <mxGeometry width="60" height="40" as="geometry">
                        <mxRectangle width="60" height="40" as="alternateBounds"/>
                    </mxGeometry>
                </mxCell>
                <mxCell id="7zAaJVbeZUzI89OwNNJT-35" value="" style="shape=partialRectangle;collapsible=0;dropTarget=0;pointerEvents=0;fillColor=none;top=0;left=0;bottom=0;right=0;points=[[0,0.5],[1,0.5]];portConstraint=eastwest;" parent="7zAaJVbeZUzI89OwNNJT-30" vertex="1">
                    <mxGeometry y="80" width="60" height="40" as="geometry"/>
                </mxCell>
                <mxCell id="7zAaJVbeZUzI89OwNNJT-36" value="" style="shape=partialRectangle;html=1;whiteSpace=wrap;connectable=0;overflow=hidden;fillColor=none;top=0;left=0;bottom=0;right=0;pointerEvents=1;" parent="7zAaJVbeZUzI89OwNNJT-35" vertex="1">
                    <mxGeometry width="60" height="40" as="geometry">
                        <mxRectangle width="60" height="40" as="alternateBounds"/>
                    </mxGeometry>
                </mxCell>
                <mxCell id="7zAaJVbeZUzI89OwNNJT-37" value="" style="shape=partialRectangle;collapsible=0;dropTarget=0;pointerEvents=0;fillColor=none;top=0;left=0;bottom=0;right=0;points=[[0,0.5],[1,0.5]];portConstraint=eastwest;" parent="7zAaJVbeZUzI89OwNNJT-30" vertex="1">
                    <mxGeometry y="120" width="60" height="40" as="geometry"/>
                </mxCell>
                <mxCell id="7zAaJVbeZUzI89OwNNJT-38" value="a" style="shape=partialRectangle;html=1;whiteSpace=wrap;connectable=0;overflow=hidden;fillColor=none;top=0;left=0;bottom=0;right=0;pointerEvents=1;" parent="7zAaJVbeZUzI89OwNNJT-37" vertex="1">
                    <mxGeometry width="60" height="40" as="geometry">
                        <mxRectangle width="60" height="40" as="alternateBounds"/>
                    </mxGeometry>
                </mxCell>
                <mxCell id="7zAaJVbeZUzI89OwNNJT-39" value="" style="shape=table;startSize=0;container=1;collapsible=0;childLayout=tableLayout;" parent="V2dBWIcwim8vggEBg8Gz-1" vertex="1">
                    <mxGeometry x="400" y="120" width="60" height="160" as="geometry"/>
                </mxCell>
                <mxCell id="7zAaJVbeZUzI89OwNNJT-40" value="" style="shape=partialRectangle;collapsible=0;dropTarget=0;pointerEvents=0;fillColor=none;top=0;left=0;bottom=0;right=0;points=[[0,0.5],[1,0.5]];portConstraint=eastwest;" parent="7zAaJVbeZUzI89OwNNJT-39" vertex="1">
                    <mxGeometry width="60" height="40" as="geometry"/>
                </mxCell>
                <mxCell id="7zAaJVbeZUzI89OwNNJT-41" value="" style="shape=partialRectangle;html=1;whiteSpace=wrap;connectable=0;overflow=hidden;fillColor=none;top=0;left=0;bottom=0;right=0;pointerEvents=1;" parent="7zAaJVbeZUzI89OwNNJT-40" vertex="1">
                    <mxGeometry width="60" height="40" as="geometry">
                        <mxRectangle width="60" height="40" as="alternateBounds"/>
                    </mxGeometry>
                </mxCell>
                <mxCell id="7zAaJVbeZUzI89OwNNJT-42" value="" style="shape=partialRectangle;collapsible=0;dropTarget=0;pointerEvents=0;fillColor=none;top=0;left=0;bottom=0;right=0;points=[[0,0.5],[1,0.5]];portConstraint=eastwest;" parent="7zAaJVbeZUzI89OwNNJT-39" vertex="1">
                    <mxGeometry y="40" width="60" height="40" as="geometry"/>
                </mxCell>
                <mxCell id="7zAaJVbeZUzI89OwNNJT-43" value="" style="shape=partialRectangle;html=1;whiteSpace=wrap;connectable=0;overflow=hidden;fillColor=none;top=0;left=0;bottom=0;right=0;pointerEvents=1;" parent="7zAaJVbeZUzI89OwNNJT-42" vertex="1">
                    <mxGeometry width="60" height="40" as="geometry">
                        <mxRectangle width="60" height="40" as="alternateBounds"/>
                    </mxGeometry>
                </mxCell>
                <mxCell id="7zAaJVbeZUzI89OwNNJT-44" value="" style="shape=partialRectangle;collapsible=0;dropTarget=0;pointerEvents=0;fillColor=none;top=0;left=0;bottom=0;right=0;points=[[0,0.5],[1,0.5]];portConstraint=eastwest;" parent="7zAaJVbeZUzI89OwNNJT-39" vertex="1">
                    <mxGeometry y="80" width="60" height="40" as="geometry"/>
                </mxCell>
                <mxCell id="7zAaJVbeZUzI89OwNNJT-45" value="b" style="shape=partialRectangle;html=1;whiteSpace=wrap;connectable=0;overflow=hidden;fillColor=none;top=0;left=0;bottom=0;right=0;pointerEvents=1;" parent="7zAaJVbeZUzI89OwNNJT-44" vertex="1">
                    <mxGeometry width="60" height="40" as="geometry">
                        <mxRectangle width="60" height="40" as="alternateBounds"/>
                    </mxGeometry>
                </mxCell>
                <mxCell id="7zAaJVbeZUzI89OwNNJT-46" value="" style="shape=partialRectangle;collapsible=0;dropTarget=0;pointerEvents=0;fillColor=none;top=0;left=0;bottom=0;right=0;points=[[0,0.5],[1,0.5]];portConstraint=eastwest;" parent="7zAaJVbeZUzI89OwNNJT-39" vertex="1">
                    <mxGeometry y="120" width="60" height="40" as="geometry"/>
                </mxCell>
                <mxCell id="7zAaJVbeZUzI89OwNNJT-47" value="a" style="shape=partialRectangle;html=1;whiteSpace=wrap;connectable=0;overflow=hidden;fillColor=none;top=0;left=0;bottom=0;right=0;pointerEvents=1;" parent="7zAaJVbeZUzI89OwNNJT-46" vertex="1">
                    <mxGeometry width="60" height="40" as="geometry">
                        <mxRectangle width="60" height="40" as="alternateBounds"/>
                    </mxGeometry>
                </mxCell>
                <mxCell id="7zAaJVbeZUzI89OwNNJT-48" value="" style="shape=table;startSize=0;container=1;collapsible=0;childLayout=tableLayout;" parent="V2dBWIcwim8vggEBg8Gz-1" vertex="1">
                    <mxGeometry x="560" y="120" width="60" height="150" as="geometry"/>
                </mxCell>
                <mxCell id="7zAaJVbeZUzI89OwNNJT-49" value="" style="shape=partialRectangle;collapsible=0;dropTarget=0;pointerEvents=0;fillColor=none;top=0;left=0;bottom=0;right=0;points=[[0,0.5],[1,0.5]];portConstraint=eastwest;" parent="7zAaJVbeZUzI89OwNNJT-48" vertex="1">
                    <mxGeometry width="60" height="40" as="geometry"/>
                </mxCell>
                <mxCell id="7zAaJVbeZUzI89OwNNJT-50" value="&lt;span style=&quot;color: rgba(0 , 0 , 0 , 0) ; font-family: monospace ; font-size: 0px&quot;&gt;%3CmxGraphModel%3E%3Croot%3E%3CmxCell%20id%3D%220%22%2F%3E%3CmxCell%20id%3D%221%22%20parent%3D%220%22%2F%3E%3CmxCell%20id%3D%222%22%20value%3D%22%22%20style%3D%22shape%3Dtable%3BstartSize%3D0%3Bcontainer%3D1%3Bcollapsible%3D0%3BchildLayout%3DtableLayout%3B%22%20vertex%3D%221%22%20parent%3D%221%22%3E%3CmxGeometry%20x%3D%22400%22%20y%3D%22120%22%20width%3D%2260%22%20height%3D%22160%22%20as%3D%22geometry%22%2F%3E%3C%2FmxCell%3E%3CmxCell%20id%3D%223%22%20value%3D%22%22%20style%3D%22shape%3DpartialRectangle%3Bcollapsible%3D0%3BdropTarget%3D0%3BpointerEvents%3D0%3BfillColor%3Dnone%3Btop%3D0%3Bleft%3D0%3Bbottom%3D0%3Bright%3D0%3Bpoints%3D%5B%5B0%2C0.5%5D%2C%5B1%2C0.5%5D%5D%3BportConstraint%3Deastwest%3B%22%20vertex%3D%221%22%20parent%3D%222%22%3E%3CmxGeometry%20width%3D%2260%22%20height%3D%2240%22%20as%3D%22geometry%22%2F%3E%3C%2FmxCell%3E%3CmxCell%20id%3D%224%22%20value%3D%22%22%20style%3D%22shape%3DpartialRectangle%3Bhtml%3D1%3BwhiteSpace%3Dwrap%3Bconnectable%3D0%3Boverflow%3Dhidden%3BfillColor%3Dnone%3Btop%3D0%3Bleft%3D0%3Bbottom%3D0%3Bright%3D0%3BpointerEvents%3D1%3B%22%20vertex%3D%221%22%20parent%3D%223%22%3E%3CmxGeometry%20width%3D%2260%22%20height%3D%2240%22%20as%3D%22geometry%22%3E%3CmxRectangle%20width%3D%2260%22%20height%3D%2240%22%20as%3D%22alternateBounds%22%2F%3E%3C%2FmxGeometry%3E%3C%2FmxCell%3E%3CmxCell%20id%3D%225%22%20value%3D%22%22%20style%3D%22shape%3DpartialRectangle%3Bcollapsible%3D0%3BdropTarget%3D0%3BpointerEvents%3D0%3BfillColor%3Dnone%3Btop%3D0%3Bleft%3D0%3Bbottom%3D0%3Bright%3D0%3Bpoints%3D%5B%5B0%2C0.5%5D%2C%5B1%2C0.5%5D%5D%3BportConstraint%3Deastwest%3B%22%20vertex%3D%221%22%20parent%3D%222%22%3E%3CmxGeometry%20y%3D%2240%22%20width%3D%2260%22%20height%3D%2240%22%20as%3D%22geometry%22%2F%3E%3C%2FmxCell%3E%3CmxCell%20id%3D%226%22%20value%3D%223%22%20style%3D%22shape%3DpartialRectangle%3Bhtml%3D1%3BwhiteSpace%3Dwrap%3Bconnectable%3D0%3Boverflow%3Dhidden%3BfillColor%3Dnone%3Btop%3D0%3Bleft%3D0%3Bbottom%3D0%3Bright%3D0%3BpointerEvents%3D1%3B%22%20vertex%3D%221%22%20parent%3D%225%22%3E%3CmxGeometry%20width%3D%2260%22%20height%3D%2240%22%20as%3D%22geometry%22%3E%3CmxRectangle%20width%3D%2260%22%20height%3D%2240%22%20as%3D%22alternateBounds%22%2F%3E%3C%2FmxGeometry%3E%3C%2FmxCell%3E%3CmxCell%20id%3D%227%22%20value%3D%22%22%20style%3D%22shape%3DpartialRectangle%3Bcollapsible%3D0%3BdropTarget%3D0%3BpointerEvents%3D0%3BfillColor%3Dnone%3Btop%3D0%3Bleft%3D0%3Bbottom%3D0%3Bright%3D0%3Bpoints%3D%5B%5B0%2C0.5%5D%2C%5B1%2C0.5%5D%5D%3BportConstraint%3Deastwest%3B%22%20vertex%3D%221%22%20parent%3D%222%22%3E%3CmxGeometry%20y%3D%2280%22%20width%3D%2260%22%20height%3D%2240%22%20as%3D%22geometry%22%2F%3E%3C%2FmxCell%3E%3CmxCell%20id%3D%228%22%20value%3D%222%22%20style%3D%22shape%3DpartialRectangle%3Bhtml%3D1%3BwhiteSpace%3Dwrap%3Bconnectable%3D0%3Boverflow%3Dhidden%3BfillColor%3Dnone%3Btop%3D0%3Bleft%3D0%3Bbottom%3D0%3Bright%3D0%3BpointerEvents%3D1%3B%22%20vertex%3D%221%22%20parent%3D%227%22%3E%3CmxGeometry%20width%3D%2260%22%20height%3D%2240%22%20as%3D%22geometry%22%3E%3CmxRectangle%20width%3D%2260%22%20height%3D%2240%22%20as%3D%22alternateBounds%22%2F%3E%3C%2FmxGeometry%3E%3C%2FmxCell%3E%3CmxCell%20id%3D%229%22%20value%3D%22%22%20style%3D%22shape%3DpartialRectangle%3Bcollapsible%3D0%3BdropTarget%3D0%3BpointerEvents%3D0%3BfillColor%3Dnone%3Btop%3D0%3Bleft%3D0%3Bbottom%3D0%3Bright%3D0%3Bpoints%3D%5B%5B0%2C0.5%5D%2C%5B1%2C0.5%5D%5D%3BportConstraint%3Deastwest%3B%22%20vertex%3D%221%22%20parent%3D%222%22%3E%3CmxGeometry%20y%3D%22120%22%20width%3D%2260%22%20height%3D%2240%22%20as%3D%22geometry%22%2F%3E%3C%2FmxCell%3E%3CmxCell%20id%3D%2210%22%20value%3D%221%22%20style%3D%22shape%3DpartialRectangle%3Bhtml%3D1%3BwhiteSpace%3Dwrap%3Bconnectable%3D0%3Boverflow%3Dhidden%3BfillColor%3Dnone%3Btop%3D0%3Bleft%3D0%3Bbottom%3D0%3Bright%3D0%3BpointerEvents%3D1%3B%22%20vertex%3D%221%22%20parent%3D%229%22%3E%3CmxGeometry%20width%3D%2260%22%20height%3D%2240%22%20as%3D%22geometry%22%3E%3CmxRectangle%20width%3D%2260%22%20height%3D%2240%22%20as%3D%22alternateBounds%22%2F%3E%3C%2FmxGeometry%3E%3C%2FmxCell%3E%3C%2Froot%3E%3C%2FmxGraphModel%3E&lt;/span&gt;" style="shape=partialRectangle;html=1;whiteSpace=wrap;connectable=0;overflow=hidden;fillColor=none;top=0;left=0;bottom=0;right=0;pointerEvents=1;" parent="7zAaJVbeZUzI89OwNNJT-49" vertex="1">
                    <mxGeometry width="60" height="40" as="geometry">
                        <mxRectangle width="60" height="40" as="alternateBounds"/>
                    </mxGeometry>
                </mxCell>
                <mxCell id="7zAaJVbeZUzI89OwNNJT-51" value="" style="shape=partialRectangle;collapsible=0;dropTarget=0;pointerEvents=0;fillColor=none;top=0;left=0;bottom=0;right=0;points=[[0,0.5],[1,0.5]];portConstraint=eastwest;" parent="7zAaJVbeZUzI89OwNNJT-48" vertex="1">
                    <mxGeometry y="40" width="60" height="30" as="geometry"/>
                </mxCell>
                <mxCell id="7zAaJVbeZUzI89OwNNJT-52" value="c" style="shape=partialRectangle;html=1;whiteSpace=wrap;connectable=0;overflow=hidden;fillColor=none;top=0;left=0;bottom=0;right=0;pointerEvents=1;" parent="7zAaJVbeZUzI89OwNNJT-51" vertex="1">
                    <mxGeometry width="60" height="30" as="geometry">
                        <mxRectangle width="60" height="30" as="alternateBounds"/>
                    </mxGeometry>
                </mxCell>
                <mxCell id="7zAaJVbeZUzI89OwNNJT-53" value="" style="shape=partialRectangle;collapsible=0;dropTarget=0;pointerEvents=0;fillColor=none;top=0;left=0;bottom=0;right=0;points=[[0,0.5],[1,0.5]];portConstraint=eastwest;" parent="7zAaJVbeZUzI89OwNNJT-48" vertex="1">
                    <mxGeometry y="70" width="60" height="40" as="geometry"/>
                </mxCell>
                <mxCell id="7zAaJVbeZUzI89OwNNJT-54" value="b" style="shape=partialRectangle;html=1;whiteSpace=wrap;connectable=0;overflow=hidden;fillColor=none;top=0;left=0;bottom=0;right=0;pointerEvents=1;" parent="7zAaJVbeZUzI89OwNNJT-53" vertex="1">
                    <mxGeometry width="60" height="40" as="geometry">
                        <mxRectangle width="60" height="40" as="alternateBounds"/>
                    </mxGeometry>
                </mxCell>
                <mxCell id="7zAaJVbeZUzI89OwNNJT-55" value="" style="shape=partialRectangle;collapsible=0;dropTarget=0;pointerEvents=0;fillColor=none;top=0;left=0;bottom=0;right=0;points=[[0,0.5],[1,0.5]];portConstraint=eastwest;" parent="7zAaJVbeZUzI89OwNNJT-48" vertex="1">
                    <mxGeometry y="110" width="60" height="40" as="geometry"/>
                </mxCell>
                <mxCell id="7zAaJVbeZUzI89OwNNJT-56" value="a" style="shape=partialRectangle;html=1;whiteSpace=wrap;connectable=0;overflow=hidden;fillColor=none;top=0;left=0;bottom=0;right=0;pointerEvents=1;" parent="7zAaJVbeZUzI89OwNNJT-55" vertex="1">
                    <mxGeometry width="60" height="40" as="geometry">
                        <mxRectangle width="60" height="40" as="alternateBounds"/>
                    </mxGeometry>
                </mxCell>
                <mxCell id="7zAaJVbeZUzI89OwNNJT-57" value="" style="shape=table;startSize=0;container=1;collapsible=0;childLayout=tableLayout;" parent="V2dBWIcwim8vggEBg8Gz-1" vertex="1">
                    <mxGeometry x="240" y="360" width="60" height="160" as="geometry"/>
                </mxCell>
                <mxCell id="7zAaJVbeZUzI89OwNNJT-58" value="" style="shape=partialRectangle;collapsible=0;dropTarget=0;pointerEvents=0;fillColor=none;top=0;left=0;bottom=0;right=0;points=[[0,0.5],[1,0.5]];portConstraint=eastwest;" parent="7zAaJVbeZUzI89OwNNJT-57" vertex="1">
                    <mxGeometry width="60" height="40" as="geometry"/>
                </mxCell>
                <mxCell id="7zAaJVbeZUzI89OwNNJT-59" value="" style="shape=partialRectangle;html=1;whiteSpace=wrap;connectable=0;overflow=hidden;fillColor=none;top=0;left=0;bottom=0;right=0;pointerEvents=1;" parent="7zAaJVbeZUzI89OwNNJT-58" vertex="1">
                    <mxGeometry width="60" height="40" as="geometry">
                        <mxRectangle width="60" height="40" as="alternateBounds"/>
                    </mxGeometry>
                </mxCell>
                <mxCell id="7zAaJVbeZUzI89OwNNJT-60" value="" style="shape=partialRectangle;collapsible=0;dropTarget=0;pointerEvents=0;fillColor=none;top=0;left=0;bottom=0;right=0;points=[[0,0.5],[1,0.5]];portConstraint=eastwest;" parent="7zAaJVbeZUzI89OwNNJT-57" vertex="1">
                    <mxGeometry y="40" width="60" height="40" as="geometry"/>
                </mxCell>
                <mxCell id="7zAaJVbeZUzI89OwNNJT-61" value="c" style="shape=partialRectangle;html=1;whiteSpace=wrap;connectable=0;overflow=hidden;fillColor=none;top=0;left=0;bottom=0;right=0;pointerEvents=1;" parent="7zAaJVbeZUzI89OwNNJT-60" vertex="1">
                    <mxGeometry width="60" height="40" as="geometry">
                        <mxRectangle width="60" height="40" as="alternateBounds"/>
                    </mxGeometry>
                </mxCell>
                <mxCell id="7zAaJVbeZUzI89OwNNJT-62" value="" style="shape=partialRectangle;collapsible=0;dropTarget=0;pointerEvents=0;fillColor=none;top=0;left=0;bottom=0;right=0;points=[[0,0.5],[1,0.5]];portConstraint=eastwest;" parent="7zAaJVbeZUzI89OwNNJT-57" vertex="1">
                    <mxGeometry y="80" width="60" height="40" as="geometry"/>
                </mxCell>
                <mxCell id="7zAaJVbeZUzI89OwNNJT-63" value="b" style="shape=partialRectangle;html=1;whiteSpace=wrap;connectable=0;overflow=hidden;fillColor=none;top=0;left=0;bottom=0;right=0;pointerEvents=1;" parent="7zAaJVbeZUzI89OwNNJT-62" vertex="1">
                    <mxGeometry width="60" height="40" as="geometry">
                        <mxRectangle width="60" height="40" as="alternateBounds"/>
                    </mxGeometry>
                </mxCell>
                <mxCell id="7zAaJVbeZUzI89OwNNJT-64" value="" style="shape=partialRectangle;collapsible=0;dropTarget=0;pointerEvents=0;fillColor=none;top=0;left=0;bottom=0;right=0;points=[[0,0.5],[1,0.5]];portConstraint=eastwest;" parent="7zAaJVbeZUzI89OwNNJT-57" vertex="1">
                    <mxGeometry y="120" width="60" height="40" as="geometry"/>
                </mxCell>
                <mxCell id="7zAaJVbeZUzI89OwNNJT-65" value="a" style="shape=partialRectangle;html=1;whiteSpace=wrap;connectable=0;overflow=hidden;fillColor=none;top=0;left=0;bottom=0;right=0;pointerEvents=1;" parent="7zAaJVbeZUzI89OwNNJT-64" vertex="1">
                    <mxGeometry width="60" height="40" as="geometry">
                        <mxRectangle width="60" height="40" as="alternateBounds"/>
                    </mxGeometry>
                </mxCell>
                <mxCell id="7zAaJVbeZUzI89OwNNJT-66" value="" style="shape=table;startSize=0;container=1;collapsible=0;childLayout=tableLayout;" parent="V2dBWIcwim8vggEBg8Gz-1" vertex="1">
                    <mxGeometry x="80" y="360" width="60" height="160" as="geometry"/>
                </mxCell>
                <mxCell id="7zAaJVbeZUzI89OwNNJT-67" value="" style="shape=partialRectangle;collapsible=0;dropTarget=0;pointerEvents=0;fillColor=none;top=0;left=0;bottom=0;right=0;points=[[0,0.5],[1,0.5]];portConstraint=eastwest;" parent="7zAaJVbeZUzI89OwNNJT-66" vertex="1">
                    <mxGeometry width="60" height="40" as="geometry"/>
                </mxCell>
                <mxCell id="7zAaJVbeZUzI89OwNNJT-68" value="d" style="shape=partialRectangle;html=1;whiteSpace=wrap;connectable=0;overflow=hidden;fillColor=none;top=0;left=0;bottom=0;right=0;pointerEvents=1;" parent="7zAaJVbeZUzI89OwNNJT-67" vertex="1">
                    <mxGeometry width="60" height="40" as="geometry">
                        <mxRectangle width="60" height="40" as="alternateBounds"/>
                    </mxGeometry>
                </mxCell>
                <mxCell id="7zAaJVbeZUzI89OwNNJT-69" value="" style="shape=partialRectangle;collapsible=0;dropTarget=0;pointerEvents=0;fillColor=none;top=0;left=0;bottom=0;right=0;points=[[0,0.5],[1,0.5]];portConstraint=eastwest;" parent="7zAaJVbeZUzI89OwNNJT-66" vertex="1">
                    <mxGeometry y="40" width="60" height="40" as="geometry"/>
                </mxCell>
                <mxCell id="7zAaJVbeZUzI89OwNNJT-70" value="c" style="shape=partialRectangle;html=1;whiteSpace=wrap;connectable=0;overflow=hidden;fillColor=none;top=0;left=0;bottom=0;right=0;pointerEvents=1;" parent="7zAaJVbeZUzI89OwNNJT-69" vertex="1">
                    <mxGeometry width="60" height="40" as="geometry">
                        <mxRectangle width="60" height="40" as="alternateBounds"/>
                    </mxGeometry>
                </mxCell>
                <mxCell id="7zAaJVbeZUzI89OwNNJT-71" value="" style="shape=partialRectangle;collapsible=0;dropTarget=0;pointerEvents=0;fillColor=none;top=0;left=0;bottom=0;right=0;points=[[0,0.5],[1,0.5]];portConstraint=eastwest;" parent="7zAaJVbeZUzI89OwNNJT-66" vertex="1">
                    <mxGeometry y="80" width="60" height="40" as="geometry"/>
                </mxCell>
                <mxCell id="7zAaJVbeZUzI89OwNNJT-72" value="b" style="shape=partialRectangle;html=1;whiteSpace=wrap;connectable=0;overflow=hidden;fillColor=none;top=0;left=0;bottom=0;right=0;pointerEvents=1;" parent="7zAaJVbeZUzI89OwNNJT-71" vertex="1">
                    <mxGeometry width="60" height="40" as="geometry">
                        <mxRectangle width="60" height="40" as="alternateBounds"/>
                    </mxGeometry>
                </mxCell>
                <mxCell id="7zAaJVbeZUzI89OwNNJT-73" value="" style="shape=partialRectangle;collapsible=0;dropTarget=0;pointerEvents=0;fillColor=none;top=0;left=0;bottom=0;right=0;points=[[0,0.5],[1,0.5]];portConstraint=eastwest;" parent="7zAaJVbeZUzI89OwNNJT-66" vertex="1">
                    <mxGeometry y="120" width="60" height="40" as="geometry"/>
                </mxCell>
                <mxCell id="7zAaJVbeZUzI89OwNNJT-74" value="a" style="shape=partialRectangle;html=1;whiteSpace=wrap;connectable=0;overflow=hidden;fillColor=none;top=0;left=0;bottom=0;right=0;pointerEvents=1;" parent="7zAaJVbeZUzI89OwNNJT-73" vertex="1">
                    <mxGeometry width="60" height="40" as="geometry">
                        <mxRectangle width="60" height="40" as="alternateBounds"/>
                    </mxGeometry>
                </mxCell>
                <mxCell id="7zAaJVbeZUzI89OwNNJT-75" value="��ջ" style="text;html=1;align=center;verticalAlign=middle;resizable=0;points=[];autosize=1;strokeColor=none;fillColor=none;" parent="V2dBWIcwim8vggEBg8Gz-1" vertex="1">
                    <mxGeometry y="180" width="40" height="20" as="geometry"/>
                </mxCell>
                <mxCell id="7zAaJVbeZUzI89OwNNJT-76" value="��ջ" style="text;html=1;align=center;verticalAlign=middle;resizable=0;points=[];autosize=1;strokeColor=none;fillColor=none;" parent="V2dBWIcwim8vggEBg8Gz-1" vertex="1">
                    <mxGeometry y="420" width="40" height="20" as="geometry"/>
                </mxCell>
                <mxCell id="7zAaJVbeZUzI89OwNNJT-77" value="" style="shape=table;startSize=0;container=1;collapsible=0;childLayout=tableLayout;" parent="V2dBWIcwim8vggEBg8Gz-1" vertex="1">
                    <mxGeometry x="400" y="360" width="60" height="160" as="geometry"/>
                </mxCell>
                <mxCell id="7zAaJVbeZUzI89OwNNJT-78" value="" style="shape=partialRectangle;collapsible=0;dropTarget=0;pointerEvents=0;fillColor=none;top=0;left=0;bottom=0;right=0;points=[[0,0.5],[1,0.5]];portConstraint=eastwest;" parent="7zAaJVbeZUzI89OwNNJT-77" vertex="1">
                    <mxGeometry width="60" height="40" as="geometry"/>
                </mxCell>
                <mxCell id="7zAaJVbeZUzI89OwNNJT-79" value="" style="shape=partialRectangle;html=1;whiteSpace=wrap;connectable=0;overflow=hidden;fillColor=none;top=0;left=0;bottom=0;right=0;pointerEvents=1;" parent="7zAaJVbeZUzI89OwNNJT-78" vertex="1">
                    <mxGeometry width="60" height="40" as="geometry">
                        <mxRectangle width="60" height="40" as="alternateBounds"/>
                    </mxGeometry>
                </mxCell>
                <mxCell id="7zAaJVbeZUzI89OwNNJT-80" value="" style="shape=partialRectangle;collapsible=0;dropTarget=0;pointerEvents=0;fillColor=none;top=0;left=0;bottom=0;right=0;points=[[0,0.5],[1,0.5]];portConstraint=eastwest;" parent="7zAaJVbeZUzI89OwNNJT-77" vertex="1">
                    <mxGeometry y="40" width="60" height="40" as="geometry"/>
                </mxCell>
                <mxCell id="7zAaJVbeZUzI89OwNNJT-81" value="" style="shape=partialRectangle;html=1;whiteSpace=wrap;connectable=0;overflow=hidden;fillColor=none;top=0;left=0;bottom=0;right=0;pointerEvents=1;" parent="7zAaJVbeZUzI89OwNNJT-80" vertex="1">
                    <mxGeometry width="60" height="40" as="geometry">
                        <mxRectangle width="60" height="40" as="alternateBounds"/>
                    </mxGeometry>
                </mxCell>
                <mxCell id="7zAaJVbeZUzI89OwNNJT-82" value="" style="shape=partialRectangle;collapsible=0;dropTarget=0;pointerEvents=0;fillColor=none;top=0;left=0;bottom=0;right=0;points=[[0,0.5],[1,0.5]];portConstraint=eastwest;" parent="7zAaJVbeZUzI89OwNNJT-77" vertex="1">
                    <mxGeometry y="80" width="60" height="40" as="geometry"/>
                </mxCell>
                <mxCell id="7zAaJVbeZUzI89OwNNJT-83" value="b" style="shape=partialRectangle;html=1;whiteSpace=wrap;connectable=0;overflow=hidden;fillColor=none;top=0;left=0;bottom=0;right=0;pointerEvents=1;" parent="7zAaJVbeZUzI89OwNNJT-82" vertex="1">
                    <mxGeometry width="60" height="40" as="geometry">
                        <mxRectangle width="60" height="40" as="alternateBounds"/>
                    </mxGeometry>
                </mxCell>
                <mxCell id="7zAaJVbeZUzI89OwNNJT-84" value="" style="shape=partialRectangle;collapsible=0;dropTarget=0;pointerEvents=0;fillColor=none;top=0;left=0;bottom=0;right=0;points=[[0,0.5],[1,0.5]];portConstraint=eastwest;" parent="7zAaJVbeZUzI89OwNNJT-77" vertex="1">
                    <mxGeometry y="120" width="60" height="40" as="geometry"/>
                </mxCell>
                <mxCell id="7zAaJVbeZUzI89OwNNJT-85" value="a" style="shape=partialRectangle;html=1;whiteSpace=wrap;connectable=0;overflow=hidden;fillColor=none;top=0;left=0;bottom=0;right=0;pointerEvents=1;" parent="7zAaJVbeZUzI89OwNNJT-84" vertex="1">
                    <mxGeometry width="60" height="40" as="geometry">
                        <mxRectangle width="60" height="40" as="alternateBounds"/>
                    </mxGeometry>
                </mxCell>
                <mxCell id="7zAaJVbeZUzI89OwNNJT-86" value="" style="shape=table;startSize=0;container=1;collapsible=0;childLayout=tableLayout;" parent="V2dBWIcwim8vggEBg8Gz-1" vertex="1">
                    <mxGeometry x="560" y="360" width="60" height="160" as="geometry"/>
                </mxCell>
                <mxCell id="7zAaJVbeZUzI89OwNNJT-87" value="" style="shape=partialRectangle;collapsible=0;dropTarget=0;pointerEvents=0;fillColor=none;top=0;left=0;bottom=0;right=0;points=[[0,0.5],[1,0.5]];portConstraint=eastwest;" parent="7zAaJVbeZUzI89OwNNJT-86" vertex="1">
                    <mxGeometry width="60" height="40" as="geometry"/>
                </mxCell>
                <mxCell id="7zAaJVbeZUzI89OwNNJT-88" value="" style="shape=partialRectangle;html=1;whiteSpace=wrap;connectable=0;overflow=hidden;fillColor=none;top=0;left=0;bottom=0;right=0;pointerEvents=1;" parent="7zAaJVbeZUzI89OwNNJT-87" vertex="1">
                    <mxGeometry width="60" height="40" as="geometry">
                        <mxRectangle width="60" height="40" as="alternateBounds"/>
                    </mxGeometry>
                </mxCell>
                <mxCell id="7zAaJVbeZUzI89OwNNJT-89" value="" style="shape=partialRectangle;collapsible=0;dropTarget=0;pointerEvents=0;fillColor=none;top=0;left=0;bottom=0;right=0;points=[[0,0.5],[1,0.5]];portConstraint=eastwest;" parent="7zAaJVbeZUzI89OwNNJT-86" vertex="1">
                    <mxGeometry y="40" width="60" height="40" as="geometry"/>
                </mxCell>
                <mxCell id="7zAaJVbeZUzI89OwNNJT-90" value="" style="shape=partialRectangle;html=1;whiteSpace=wrap;connectable=0;overflow=hidden;fillColor=none;top=0;left=0;bottom=0;right=0;pointerEvents=1;" parent="7zAaJVbeZUzI89OwNNJT-89" vertex="1">
                    <mxGeometry width="60" height="40" as="geometry">
                        <mxRectangle width="60" height="40" as="alternateBounds"/>
                    </mxGeometry>
                </mxCell>
                <mxCell id="7zAaJVbeZUzI89OwNNJT-91" value="" style="shape=partialRectangle;collapsible=0;dropTarget=0;pointerEvents=0;fillColor=none;top=0;left=0;bottom=0;right=0;points=[[0,0.5],[1,0.5]];portConstraint=eastwest;" parent="7zAaJVbeZUzI89OwNNJT-86" vertex="1">
                    <mxGeometry y="80" width="60" height="40" as="geometry"/>
                </mxCell>
                <mxCell id="7zAaJVbeZUzI89OwNNJT-92" value="" style="shape=partialRectangle;html=1;whiteSpace=wrap;connectable=0;overflow=hidden;fillColor=none;top=0;left=0;bottom=0;right=0;pointerEvents=1;" parent="7zAaJVbeZUzI89OwNNJT-91" vertex="1">
                    <mxGeometry width="60" height="40" as="geometry">
                        <mxRectangle width="60" height="40" as="alternateBounds"/>
                    </mxGeometry>
                </mxCell>
                <mxCell id="7zAaJVbeZUzI89OwNNJT-93" value="" style="shape=partialRectangle;collapsible=0;dropTarget=0;pointerEvents=0;fillColor=none;top=0;left=0;bottom=0;right=0;points=[[0,0.5],[1,0.5]];portConstraint=eastwest;" parent="7zAaJVbeZUzI89OwNNJT-86" vertex="1">
                    <mxGeometry y="120" width="60" height="40" as="geometry"/>
                </mxCell>
                <mxCell id="7zAaJVbeZUzI89OwNNJT-94" value="a" style="shape=partialRectangle;html=1;whiteSpace=wrap;connectable=0;overflow=hidden;fillColor=none;top=0;left=0;bottom=0;right=0;pointerEvents=1;" parent="7zAaJVbeZUzI89OwNNJT-93" vertex="1">
                    <mxGeometry width="60" height="40" as="geometry">
                        <mxRectangle width="60" height="40" as="alternateBounds"/>
                    </mxGeometry>
                </mxCell>
                <mxCell id="7zAaJVbeZUzI89OwNNJT-95" value="" style="shape=table;startSize=0;container=1;collapsible=0;childLayout=tableLayout;" parent="V2dBWIcwim8vggEBg8Gz-1" vertex="1">
                    <mxGeometry x="720" y="120" width="60" height="160" as="geometry"/>
                </mxCell>
                <mxCell id="7zAaJVbeZUzI89OwNNJT-96" value="" style="shape=partialRectangle;collapsible=0;dropTarget=0;pointerEvents=0;fillColor=none;top=0;left=0;bottom=0;right=0;points=[[0,0.5],[1,0.5]];portConstraint=eastwest;" parent="7zAaJVbeZUzI89OwNNJT-95" vertex="1">
                    <mxGeometry width="60" height="40" as="geometry"/>
                </mxCell>
                <mxCell id="7zAaJVbeZUzI89OwNNJT-97" value="d" style="shape=partialRectangle;html=1;whiteSpace=wrap;connectable=0;overflow=hidden;fillColor=none;top=0;left=0;bottom=0;right=0;pointerEvents=1;" parent="7zAaJVbeZUzI89OwNNJT-96" vertex="1">
                    <mxGeometry width="60" height="40" as="geometry">
                        <mxRectangle width="60" height="40" as="alternateBounds"/>
                    </mxGeometry>
                </mxCell>
                <mxCell id="7zAaJVbeZUzI89OwNNJT-98" value="" style="shape=partialRectangle;collapsible=0;dropTarget=0;pointerEvents=0;fillColor=none;top=0;left=0;bottom=0;right=0;points=[[0,0.5],[1,0.5]];portConstraint=eastwest;" parent="7zAaJVbeZUzI89OwNNJT-95" vertex="1">
                    <mxGeometry y="40" width="60" height="40" as="geometry"/>
                </mxCell>
                <mxCell id="7zAaJVbeZUzI89OwNNJT-99" value="c" style="shape=partialRectangle;html=1;whiteSpace=wrap;connectable=0;overflow=hidden;fillColor=none;top=0;left=0;bottom=0;right=0;pointerEvents=1;" parent="7zAaJVbeZUzI89OwNNJT-98" vertex="1">
                    <mxGeometry width="60" height="40" as="geometry">
                        <mxRectangle width="60" height="40" as="alternateBounds"/>
                    </mxGeometry>
                </mxCell>
                <mxCell id="7zAaJVbeZUzI89OwNNJT-100" value="" style="shape=partialRectangle;collapsible=0;dropTarget=0;pointerEvents=0;fillColor=none;top=0;left=0;bottom=0;right=0;points=[[0,0.5],[1,0.5]];portConstraint=eastwest;" parent="7zAaJVbeZUzI89OwNNJT-95" vertex="1">
                    <mxGeometry y="80" width="60" height="40" as="geometry"/>
                </mxCell>
                <mxCell id="7zAaJVbeZUzI89OwNNJT-101" value="b" style="shape=partialRectangle;html=1;whiteSpace=wrap;connectable=0;overflow=hidden;fillColor=none;top=0;left=0;bottom=0;right=0;pointerEvents=1;" parent="7zAaJVbeZUzI89OwNNJT-100" vertex="1">
                    <mxGeometry width="60" height="40" as="geometry">
                        <mxRectangle width="60" height="40" as="alternateBounds"/>
                    </mxGeometry>
                </mxCell>
                <mxCell id="7zAaJVbeZUzI89OwNNJT-102" value="" style="shape=partialRectangle;collapsible=0;dropTarget=0;pointerEvents=0;fillColor=none;top=0;left=0;bottom=0;right=0;points=[[0,0.5],[1,0.5]];portConstraint=eastwest;" parent="7zAaJVbeZUzI89OwNNJT-95" vertex="1">
                    <mxGeometry y="120" width="60" height="40" as="geometry"/>
                </mxCell>
                <mxCell id="7zAaJVbeZUzI89OwNNJT-103" value="a" style="shape=partialRectangle;html=1;whiteSpace=wrap;connectable=0;overflow=hidden;fillColor=none;top=0;left=0;bottom=0;right=0;pointerEvents=1;" parent="7zAaJVbeZUzI89OwNNJT-102" vertex="1">
                    <mxGeometry width="60" height="40" as="geometry">
                        <mxRectangle width="60" height="40" as="alternateBounds"/>
                    </mxGeometry>
                </mxCell>
                <mxCell id="7zAaJVbeZUzI89OwNNJT-113" value="" style="shape=table;startSize=0;container=1;collapsible=0;childLayout=tableLayout;" parent="V2dBWIcwim8vggEBg8Gz-1" vertex="1">
                    <mxGeometry x="720" y="360" width="60" height="160" as="geometry"/>
                </mxCell>
                <mxCell id="7zAaJVbeZUzI89OwNNJT-114" value="" style="shape=partialRectangle;collapsible=0;dropTarget=0;pointerEvents=0;fillColor=none;top=0;left=0;bottom=0;right=0;points=[[0,0.5],[1,0.5]];portConstraint=eastwest;" parent="7zAaJVbeZUzI89OwNNJT-113" vertex="1">
                    <mxGeometry width="60" height="40" as="geometry"/>
                </mxCell>
                <mxCell id="7zAaJVbeZUzI89OwNNJT-115" value="" style="shape=partialRectangle;html=1;whiteSpace=wrap;connectable=0;overflow=hidden;fillColor=none;top=0;left=0;bottom=0;right=0;pointerEvents=1;" parent="7zAaJVbeZUzI89OwNNJT-114" vertex="1">
                    <mxGeometry width="60" height="40" as="geometry">
                        <mxRectangle width="60" height="40" as="alternateBounds"/>
                    </mxGeometry>
                </mxCell>
                <mxCell id="7zAaJVbeZUzI89OwNNJT-116" value="" style="shape=partialRectangle;collapsible=0;dropTarget=0;pointerEvents=0;fillColor=none;top=0;left=0;bottom=0;right=0;points=[[0,0.5],[1,0.5]];portConstraint=eastwest;" parent="7zAaJVbeZUzI89OwNNJT-113" vertex="1">
                    <mxGeometry y="40" width="60" height="40" as="geometry"/>
                </mxCell>
                <mxCell id="7zAaJVbeZUzI89OwNNJT-117" value="" style="shape=partialRectangle;html=1;whiteSpace=wrap;connectable=0;overflow=hidden;fillColor=none;top=0;left=0;bottom=0;right=0;pointerEvents=1;" parent="7zAaJVbeZUzI89OwNNJT-116" vertex="1">
                    <mxGeometry width="60" height="40" as="geometry">
                        <mxRectangle width="60" height="40" as="alternateBounds"/>
                    </mxGeometry>
                </mxCell>
                <mxCell id="7zAaJVbeZUzI89OwNNJT-118" value="" style="shape=partialRectangle;collapsible=0;dropTarget=0;pointerEvents=0;fillColor=none;top=0;left=0;bottom=0;right=0;points=[[0,0.5],[1,0.5]];portConstraint=eastwest;" parent="7zAaJVbeZUzI89OwNNJT-113" vertex="1">
                    <mxGeometry y="80" width="60" height="40" as="geometry"/>
                </mxCell>
                <mxCell id="7zAaJVbeZUzI89OwNNJT-119" value="" style="shape=partialRectangle;html=1;whiteSpace=wrap;connectable=0;overflow=hidden;fillColor=none;top=0;left=0;bottom=0;right=0;pointerEvents=1;" parent="7zAaJVbeZUzI89OwNNJT-118" vertex="1">
                    <mxGeometry width="60" height="40" as="geometry">
                        <mxRectangle width="60" height="40" as="alternateBounds"/>
                    </mxGeometry>
                </mxCell>
                <mxCell id="7zAaJVbeZUzI89OwNNJT-120" value="" style="shape=partialRectangle;collapsible=0;dropTarget=0;pointerEvents=0;fillColor=none;top=0;left=0;bottom=0;right=0;points=[[0,0.5],[1,0.5]];portConstraint=eastwest;" parent="7zAaJVbeZUzI89OwNNJT-113" vertex="1">
                    <mxGeometry y="120" width="60" height="40" as="geometry"/>
                </mxCell>
                <mxCell id="7zAaJVbeZUzI89OwNNJT-121" value="" style="shape=partialRectangle;html=1;whiteSpace=wrap;connectable=0;overflow=hidden;fillColor=none;top=0;left=0;bottom=0;right=0;pointerEvents=1;" parent="7zAaJVbeZUzI89OwNNJT-120" vertex="1">
                    <mxGeometry width="60" height="40" as="geometry">
                        <mxRectangle width="60" height="40" as="alternateBounds"/>
                    </mxGeometry>
                </mxCell>
                <mxCell id="7zAaJVbeZUzI89OwNNJT-124" value="ջ��" style="text;html=1;align=center;verticalAlign=middle;resizable=0;points=[];autosize=1;strokeColor=none;fillColor=none;" parent="V2dBWIcwim8vggEBg8Gz-1" vertex="1">
                    <mxGeometry x="90" y="280" width="40" height="20" as="geometry"/>
                </mxCell>
                <mxCell id="7zAaJVbeZUzI89OwNNJT-125" value="ջ��" style="text;html=1;align=center;verticalAlign=middle;resizable=0;points=[];autosize=1;strokeColor=none;fillColor=none;" parent="V2dBWIcwim8vggEBg8Gz-1" vertex="1">
                    <mxGeometry x="90" y="520" width="40" height="20" as="geometry"/>
                </mxCell>
                <mxCell id="gqWVZ2XU2jbt1wXSEGIY-0" value="1" style="text;html=1;align=center;verticalAlign=middle;resizable=0;points=[];autosize=1;strokeColor=none;fillColor=none;" vertex="1" parent="V2dBWIcwim8vggEBg8Gz-1">
                    <mxGeometry x="150" y="250" width="20" height="20" as="geometry"/>
                </mxCell>
                <mxCell id="gqWVZ2XU2jbt1wXSEGIY-1" value="2" style="text;html=1;align=center;verticalAlign=middle;resizable=0;points=[];autosize=1;strokeColor=none;fillColor=none;" vertex="1" parent="V2dBWIcwim8vggEBg8Gz-1">
                    <mxGeometry x="150" y="210" width="20" height="20" as="geometry"/>
                </mxCell>
                <mxCell id="gqWVZ2XU2jbt1wXSEGIY-2" value="3" style="text;html=1;align=center;verticalAlign=middle;resizable=0;points=[];autosize=1;strokeColor=none;fillColor=none;" vertex="1" parent="V2dBWIcwim8vggEBg8Gz-1">
                    <mxGeometry x="150" y="170" width="20" height="20" as="geometry"/>
                </mxCell>
                <mxCell id="gqWVZ2XU2jbt1wXSEGIY-3" value="4" style="text;html=1;align=center;verticalAlign=middle;resizable=0;points=[];autosize=1;strokeColor=none;fillColor=none;" vertex="1" parent="V2dBWIcwim8vggEBg8Gz-1">
                    <mxGeometry x="150" y="130" width="20" height="20" as="geometry"/>
                </mxCell>
                <mxCell id="SB7YKcIBOALk7cuxp8jS-0" value="esp" style="shape=singleArrow;whiteSpace=wrap;html=1;arrowWidth=0.4;arrowSize=0.4;direction=west;" vertex="1" parent="V2dBWIcwim8vggEBg8Gz-1">
                    <mxGeometry x="300" y="220" width="80" height="40" as="geometry"/>
                </mxCell>
                <mxCell id="SB7YKcIBOALk7cuxp8jS-1" value="" style="shape=singleArrow;whiteSpace=wrap;html=1;arrowWidth=0.4;arrowSize=0.4;direction=west;" vertex="1" parent="V2dBWIcwim8vggEBg8Gz-1">
                    <mxGeometry x="460" y="180" width="80" height="40" as="geometry"/>
                </mxCell>
                <mxCell id="SB7YKcIBOALk7cuxp8jS-2" value="" style="shape=singleArrow;whiteSpace=wrap;html=1;arrowWidth=0.4;arrowSize=0.4;direction=west;" vertex="1" parent="V2dBWIcwim8vggEBg8Gz-1">
                    <mxGeometry x="620" y="140" width="80" height="40" as="geometry"/>
                </mxCell>
                <mxCell id="SB7YKcIBOALk7cuxp8jS-3" value="" style="shape=singleArrow;whiteSpace=wrap;html=1;arrowWidth=0.4;arrowSize=0.4;direction=west;" vertex="1" parent="V2dBWIcwim8vggEBg8Gz-1">
                    <mxGeometry x="140" y="340" width="80" height="40" as="geometry"/>
                </mxCell>
                <mxCell id="SB7YKcIBOALk7cuxp8jS-4" value="" style="shape=singleArrow;whiteSpace=wrap;html=1;arrowWidth=0.4;arrowSize=0.4;direction=west;" vertex="1" parent="V2dBWIcwim8vggEBg8Gz-1">
                    <mxGeometry x="300" y="380" width="80" height="40" as="geometry"/>
                </mxCell>
                <mxCell id="SB7YKcIBOALk7cuxp8jS-5" value="ebp" style="text;html=1;align=center;verticalAlign=middle;resizable=0;points=[];autosize=1;strokeColor=none;fillColor=none;" vertex="1" parent="V2dBWIcwim8vggEBg8Gz-1">
                    <mxGeometry y="350" width="40" height="20" as="geometry"/>
                </mxCell>
                <mxCell id="SB7YKcIBOALk7cuxp8jS-6" value="esp" style="text;html=1;align=center;verticalAlign=middle;resizable=0;points=[];autosize=1;strokeColor=none;fillColor=none;" vertex="1" parent="V2dBWIcwim8vggEBg8Gz-1">
                    <mxGeometry y="270" width="30" height="20" as="geometry"/>
                </mxCell>
                <mxCell id="Go61W1YK7hLlb3zqlf7S-0" value="��" style="text;html=1;align=center;verticalAlign=middle;resizable=0;points=[];autosize=1;strokeColor=none;fillColor=none;" vertex="1" parent="V2dBWIcwim8vggEBg8Gz-1">
                    <mxGeometry x="135" y="300" width="30" height="20" as="geometry"/>
                </mxCell>
                <mxCell id="Go61W1YK7hLlb3zqlf7S-1" value="��" style="text;html=1;align=center;verticalAlign=middle;resizable=0;points=[];autosize=1;strokeColor=none;fillColor=none;" vertex="1" parent="V2dBWIcwim8vggEBg8Gz-1">
                    <mxGeometry x="135" y="90" width="30" height="20" as="geometry"/>
                </mxCell>
            </root>
        </mxGraphModel>
    </diagram>
    <diagram id="l6LpXBTMcjiDVrR61C1z" name="�� 3 ҳ">
        <mxGraphModel dx="519" dy="428" grid="1" gridSize="10" guides="1" tooltips="1" connect="1" arrows="1" fold="1" page="1" pageScale="1" pageWidth="827" pageHeight="1169" math="0" shadow="0">
            <root>
                <mxCell id="8dYUJ1_X8A9qBwH_uaFW-0"/>
                <mxCell id="8dYUJ1_X8A9qBwH_uaFW-1" parent="8dYUJ1_X8A9qBwH_uaFW-0"/>
            </root>
        </mxGraphModel>
    </diagram>
</mxfile>